<svg width="24" height="24" viewBox="0 0 24 24" fill="none" xmlns="http://www.w3.org/2000/svg">
<path d="M12.0001 23.0001C13.1001 23.0001 13.9901 22.1101 13.9901 21.0101H10.0101C10.0101 22.1101 10.9001 23.0001 12.0001 23.0001ZM19.0001 17.0001V11.0001C19.0001 7.65012 16.6401 4.85012 13.5001 4.17012V3.00012C13.5001 2.17012 12.8301 1.50012 12.0001 1.50012C11.1701 1.50012 10.5001 2.17012 10.5001 3.00012V4.17012C7.36005 4.85012 5.00005 7.65012 5.00005 11.0001V17.0001L3.71005 18.2901C3.08005 18.9201 3.52005 20.0001 4.41005 20.0001H19.5801C20.4701 20.0001 20.9201 18.9201 20.2901 18.2901L19.0001 17.0001ZM15.0001 13.0101H13.0001V15.0101C13.0001 15.5601 12.5501 16.0101 12.0001 16.0101C11.4501 16.0101 11.0001 15.5601 11.0001 15.0101V13.0101H9.00005C8.45005 13.0101 8.00005 12.5601 8.00005 12.0101V12.0001C8.00005 11.4501 8.45005 11.0001 9.00005 11.0001H11.0001V9.00012C11.0001 8.45012 11.4501 8.00012 12.0001 8.00012C12.5501 8.00012 13.0001 8.45012 13.0001 9.00012V11.0001H15.0001C15.5501 11.0001 16.0001 11.4501 16.0001 12.0001V12.0101C16.0001 12.5601 15.5501 13.0101 15.0001 13.0101Z" fill="#EE0033"/>
</svg>
