<svg width="24" height="24" viewBox="0 0 24 24" fill="none" xmlns="http://www.w3.org/2000/svg">
<path d="M11.5 3.79995C6.50005 3.79995 2.50005 7.79995 2.50005 12.8C2.50005 17.8 6.50005 21.8 11.5 21.8C16.5 21.8 20.5 17.8 20.5 12.8C20.5 7.79995 16.5 3.79995 11.5 3.79995ZM14.5 9.89995C14.8 9.59995 15.3 9.59995 15.6 9.89995C15.9001 10.2 15.9001 10.7 15.6 11L10.7 15.9C10.4 16.2 9.90005 16.2 9.60005 15.9L7.50005 13.8C7.20005 13.5 7.20005 13 7.50005 12.7C7.80005 12.4 8.30005 12.4 8.60005 12.7L10.2 14.3L14.5 9.89995ZM3.60005 6.29995L6.70005 3.69995C7.10005 3.29995 7.20005 2.69995 6.80005 2.29995C6.50005 1.89995 5.80005 1.79995 5.40005 2.19995L2.40005 4.79995C2.00005 5.19995 1.90005 5.79995 2.30005 6.19995C2.60005 6.59995 3.20005 6.69995 3.60005 6.29995ZM10.1 14.3L14.5 9.89995L10.1 14.3ZM20.7001 4.79995L17.6 2.19995C17.2001 1.89995 16.6 1.89995 16.2 2.29995C15.9 2.69995 15.9001 3.39995 16.3 3.69995L19.4 6.29995C19.8 6.59995 20.4 6.59995 20.8 6.19995C21.2 5.79995 21.1 5.19995 20.7001 4.79995Z" fill="#EE0033"/>
</svg>
