<svg width="24" height="24" viewBox="0 0 24 24" fill="none" xmlns="http://www.w3.org/2000/svg">
<path d="M21.2001 4.79999L18.1001 2.19999C17.7001 1.89999 17.1 1.89999 16.7 2.29999C16.4 2.69999 16.4001 3.29999 16.8001 3.69999L19.9 6.29999C20.3 6.59999 20.9 6.59999 21.3 6.19999C21.7 5.79999 21.6001 5.19999 21.2001 4.79999Z" fill="#EE0033"/>
<path d="M7.29998 2.39998C6.99998 1.99998 6.49998 1.89998 6.09998 2.09998L7.39998 3.39998C7.59998 3.09998 7.59998 2.69998 7.29998 2.39998Z" fill="#EE0033"/>
<path d="M3.7 2.59999C3.3 2.19999 2.7 2.19999 2.3 2.59999C1.9 2.99999 1.9 3.59999 2.3 3.99999L3 4.69999L2.8 4.79999C2.4 5.09999 2.3 5.79999 2.7 6.19999C3 6.59999 3.7 6.69999 4.1 6.29999L4.4 5.99999L5.2 6.79999C3.8 8.49999 3 10.5 3 12.8C3 17.8 7 21.8 12 21.8C14.3 21.8 16.3 21 17.9 19.6L19.3 21C19.7 21.4 20.3 21.4 20.7 21C21.1 20.6 21.1 20 20.7 19.6L3.7 2.59999ZM12.7 19.9C8.3 19.9 5.2 16.8 5.2 12.5C5.2 11.4 5.4 10.4 5.8 9.39999L7.2 10.8C7 11.3 6.9 11.8 6.9 12.4C6.9 15.8 9.2 18.1 12.7 18.1C13.3 18.1 13.9 18 14.4 17.8L15.8 19.2C14.8 19.6 13.8 19.9 12.7 19.9Z" fill="#EE0033"/>
<path d="M11.9 7.09999C11.6 7.09999 11.4 7.09999 11.1 7.19999L17.6 13.7C17.6 13.4 17.7 13.1 17.7 12.8C17.7 9.39999 15.3 7.09999 11.9 7.09999Z" fill="#EE0033"/>
<path d="M12 3.79999C10.7 3.79999 9.6 3.99999 8.5 4.49999L9.7 5.69999C10.4 5.49999 11.2 5.39999 12 5.39999C16.4 5.39999 19.5 8.49999 19.5 12.8C19.5 13.6 19.4 14.4 19.1 15.1L20.3 16.3C20.8 15.2 21 14 21 12.8C21 7.79999 17 3.79999 12 3.79999Z" fill="#EE0033"/>
</svg>
