<svg width="24" height="24" viewBox="0 0 24 24" fill="none" xmlns="http://www.w3.org/2000/svg">
<path d="M3.60005 6.30001L6.70005 3.70001C7.10005 3.30001 7.20005 2.70001 6.80005 2.30001C6.50005 1.90001 5.80005 1.80001 5.40005 2.20001L2.40005 4.80001C2.00005 5.20001 1.90005 5.80001 2.30005 6.20001C2.60005 6.60001 3.20005 6.70001 3.60005 6.30001Z" fill="#EE0033"/>
<path d="M11.5 3.80002C6.5 3.80002 2.5 7.80002 2.5 12.8C2.5 17.8 6.5 21.8 11.5 21.8C16.5 21.8 20.5 17.8 20.5 12.8C20.5 7.80002 16.5 3.80002 11.5 3.80002ZM16.2 15.9C15.9 16.4 15.3 16.5 14.8 16.2L11.1 14C10.7 13.7 10.4 13.3 10.4 12.8V8.20002C10.4 7.60002 10.9 7.20002 11.4 7.20002H11.5C12.1 7.20002 12.5 7.70002 12.5 8.20002V12.6L15.8 14.5C16.3 14.8 16.5 15.4 16.2 15.9Z" fill="#EE0033"/>
<path d="M20.7001 4.80002L17.6001 2.20002C17.2001 1.90002 16.6 1.90002 16.2 2.30002C15.9 2.70002 15.9001 3.40002 16.3001 3.70002L19.4 6.30002C19.8 6.60002 20.4 6.60002 20.8 6.20002C21.2 5.80002 21.1001 5.20002 20.7001 4.80002Z" fill="#EE0033"/>
</svg>
