<svg width="24" height="24" viewBox="0 0 24 24" fill="none" xmlns="http://www.w3.org/2000/svg">
<path d="M10.04 6.29C10.66 6.11 11.32 6 12 6C15.86 6 19 9.14 19 13C19 13.68 18.89 14.34 18.71 14.96L20.27 16.52C20.74 15.44 21 14.25 21 13C21 8.03 16.97 4 12 4C10.75 4 9.55999 4.26 8.46999 4.72L10.04 6.29ZM17.337 1.81L21.944 5.655L20.664 7.19L16.054 3.347L17.337 1.81ZM3.01999 2.1L1.60999 3.51L2.97999 4.88L2.05999 5.65L3.33999 7.19L4.39999 6.31L5.19999 7.11C3.82999 8.69 2.99999 10.75 2.99999 13C2.99999 17.97 7.02999 22 12 22C14.25 22 16.31 21.17 17.89 19.8L19.99 21.9L21.4 20.49L3.01999 2.1ZM12 20C8.13999 20 4.99999 16.86 4.99999 13C4.99999 11.3 5.60999 9.74 6.61999 8.53L16.47 18.38C15.26 19.39 13.7 20 12 20ZM7.47999 3.73L7.93999 3.35L6.65999 1.81L6.05999 2.31L7.47999 3.73Z" fill="#EE0033"/>
</svg>
