<svg width="24" height="24" viewBox="0 0 24 24" fill="none" xmlns="http://www.w3.org/2000/svg">
<g clip-path="url(#clip0)">
<path fill-rule="evenodd" clip-rule="evenodd" d="M16.25 17.25V9.75H7.75V17.25H16.25ZM6.10506 18.4449C6.03787 18.3107 6 18.1595 6 18V8H18V18C18 18.1595 17.9621 18.3107 17.8949 18.4449C17.7305 18.7732 17.3905 19 17 19H16V22.5C16 23.33 15.33 24 14.5 24C13.67 24 13 23.33 13 22.5V19H11V22.5C11 23.33 10.33 24 9.5 24C8.67 24 8 23.33 8 22.5V19H7C6.60955 19 6.2695 18.7732 6.10506 18.4449ZM4.25 17.8001C4.69874 17.5412 5 17.0566 5 16.5V9.5C5 9.22655 4.92728 8.97048 4.80007 8.75C4.66837 8.52173 4.47827 8.33163 4.25 8.19993C4.02952 8.07272 3.77345 8 3.5 8C2.67 8 2 8.67 2 9.5V16.5C2 17.33 2.67 18 3.5 18C3.77345 18 4.02952 17.9273 4.25 17.8001ZM6.04653 6.25C6.01583 6.4955 6 6.74579 6 7H18C18 6.74595 17.9842 6.49564 17.9535 6.25C17.9106 5.90672 17.8386 5.57256 17.74 5.25C17.5316 4.56797 17.2042 3.93783 16.7817 3.3832C16.7712 3.36942 16.7606 3.35569 16.75 3.342C16.5549 3.09045 16.34 2.85477 16.1077 2.63721C15.962 2.50084 15.8095 2.37158 15.6507 2.25C15.6108 2.21951 15.5706 2.18951 15.53 2.16L16.83 0.86C17.03 0.66 17.03 0.35 16.83 0.15C16.63 -0.05 16.32 -0.05 16.12 0.15L14.64 1.63C13.85 1.23 12.95 1 12 1C11.3242 1 10.6782 1.11397 10.0758 1.32097C9.82249 1.40804 9.57686 1.51157 9.34 1.63L7.85 0.15C7.65 -0.05 7.34 -0.05 7.14 0.15C6.94 0.35 6.94 0.66 7.14 0.86L8.45 2.17C8.41431 2.19628 8.37892 2.22295 8.34383 2.25C8.18257 2.37429 8.02771 2.50657 7.87988 2.64626C7.65254 2.86106 7.44183 3.09338 7.25 3.34115C7.2349 3.36065 7.21992 3.38024 7.20506 3.39993C6.78979 3.9501 6.46673 4.57416 6.2601 5.25C6.16155 5.57235 6.08948 5.90649 6.04653 6.25ZM12.25 2.75759V5.25H11.75V2.75739C11.8326 2.75249 11.916 2.75 12 2.75C12.0839 2.75 12.1673 2.75256 12.25 2.75759ZM10 4H9V5H10V4ZM14 5H15V4H14V5ZM19.75 8.19993C19.5217 8.33163 19.3316 8.52173 19.1999 8.75C19.0727 8.97048 19 9.22655 19 9.5V16.5C19 17.0566 19.3013 17.5412 19.75 17.8001C19.9705 17.9273 20.2266 18 20.5 18C21.33 18 22 17.33 22 16.5V9.5C22 8.67 21.33 8 20.5 8C20.2266 8 19.9705 8.07272 19.75 8.19993Z" fill="#EE0033"/>
</g>
<defs>
<clipPath id="clip0">
<rect width="24" height="24" fill="white"/>
</clipPath>
</defs>
</svg>
