<svg width="24" height="24" viewBox="0 0 24 24" fill="none" xmlns="http://www.w3.org/2000/svg">
<path d="M17.6842 3.39474V16.6579C17.6842 19.6099 15.2941 22 12.3421 22C9.39013 22 7 19.6099 7 16.6579V4.86842C7 2.73158 8.73158 1 10.8684 1C13.0053 1 14.7368 2.73158 14.7368 4.86842V15.9211C14.7368 17.2428 13.6638 18.3158 12.3421 18.3158C11.0204 18.3158 9.94737 17.2428 9.94737 15.9211V9.28947C9.94737 8.78289 10.3618 8.36842 10.8684 8.36842C11.375 8.36842 11.7895 8.78289 11.7895 9.28947V15.9211C11.7895 16.225 12.0382 16.4737 12.3421 16.4737C12.6461 16.4737 12.8947 16.225 12.8947 15.9211V4.86842C12.8947 3.74934 11.9875 2.84211 10.8684 2.84211C9.74934 2.84211 8.84211 3.74934 8.84211 4.86842V16.6579C8.84211 18.5921 10.4079 20.1579 12.3421 20.1579C14.2763 20.1579 15.8421 18.5921 15.8421 16.6579V3.39474C15.8421 2.88816 16.2566 2.47368 16.7632 2.47368C17.2697 2.47368 17.6842 2.88816 17.6842 3.39474Z" fill="#EE0033"/>
</svg>
