<svg width="24" height="24" viewBox="0 0 24 24" fill="none" xmlns="http://www.w3.org/2000/svg">
<path d="M14.0649 12.0076L18.3544 7.67422C18.6171 7.4116 18.7484 7.06143 18.7046 6.71126C18.6608 6.36109 18.4858 6.05469 18.1794 5.83583L12.7517 2.20282C12.4015 1.94019 11.9201 1.94019 11.5261 2.15904C11.1322 2.3779 10.8696 2.77184 10.8696 3.20955V8.89982L8.02442 6.01092C7.54294 5.52943 6.79883 5.52943 6.36111 6.01092C5.87963 6.4924 5.87963 7.23651 6.36111 7.67422L10.6507 12.0076L6.36111 16.3409C5.87963 16.8224 5.9234 17.5665 6.36111 18.0042C6.8426 18.4857 7.58671 18.442 8.02442 18.0042L10.8696 15.1153V20.8056C10.8696 21.2433 11.1322 21.6373 11.5261 21.8561C11.9201 22.075 12.4015 22.0312 12.7517 21.8123L18.2231 18.1356C18.5295 17.9167 18.7046 17.6103 18.7484 17.2601C18.7922 16.91 18.6608 16.5598 18.3982 16.2972L14.0649 12.0076ZM13.277 5.39812L15.6844 7.01765L13.277 9.42507V5.39812ZM13.277 18.617V14.5463L15.6844 16.9537L13.277 18.617Z" fill="#EE0033"/>
</svg>
