<svg width="24" height="24" viewBox="0 0 24 24" fill="none" xmlns="http://www.w3.org/2000/svg">
<path opacity="0.3" d="M18 9.52002V6.00002H14.48L12 3.52002L9.52002 6.00002H6.00002V9.52002L3.52002 12L6.00002 14.48V18H9.52002L12 20.48L14.48 18H18V14.48L20.48 12L18 9.52002ZM12.29 17C11.55 17 10.84 16.83 10.21 16.54C11.93 15.75 13.13 14.02 13.13 12C13.13 9.98002 11.93 8.25002 10.21 7.46002C10.84 7.17002 11.55 7.00002 12.29 7.00002C15.05 7.00002 17.29 9.24002 17.29 12C17.29 14.76 15.05 17 12.29 17Z" fill="#8F9294"/>
<path d="M20 8.68994V3.99994H15.31L12 0.689941L8.69 3.99994H4V8.68994L0.690002 11.9999L4 15.3099V19.9999H8.69L12 23.3099L15.31 19.9999H20V15.3099L23.31 11.9999L20 8.68994ZM18 14.4799V17.9999H14.48L12 20.4799L9.52 17.9999H6V14.4799L3.52 11.9999L6 9.51994V5.99994H9.52L12 3.51994L14.48 5.99994H18V9.51994L20.48 11.9999L18 14.4799ZM12.29 6.99994C11.55 6.99994 10.84 7.16994 10.21 7.45994C11.93 8.24994 13.13 9.98994 13.13 11.9999C13.13 14.0099 11.93 15.7499 10.21 16.5399C10.84 16.8299 11.55 16.9999 12.29 16.9999C15.05 16.9999 17.29 14.7599 17.29 11.9999C17.29 9.23994 15.05 6.99994 12.29 6.99994Z" fill="#8F9294"/>
</svg>
