<svg width="24" height="24" viewBox="0 0 24 24" fill="none" xmlns="http://www.w3.org/2000/svg">
<path opacity="0.3" d="M18 9.52002V6.00002H14.48L12 3.52002L9.52002 6.00002H6.00002V9.52002L3.52002 12L6.00002 14.48V18H9.52002L12 20.48L14.48 18H18V14.48L20.48 12L18 9.52002ZM12 17.5C8.97002 17.5 6.50002 15.03 6.50002 12C6.50002 8.97002 8.97002 6.50002 12 6.50002C15.03 6.50002 17.5 8.97002 17.5 12C17.5 15.03 15.03 17.5 12 17.5Z" fill="#8F9294"/>
<path d="M20 8.68994V3.99994H15.31L12 0.689941L8.69 3.99994H4V8.68994L0.690002 11.9999L4 15.3099V19.9999H8.69L12 23.3099L15.31 19.9999H20V15.3099L23.31 11.9999L20 8.68994ZM18 14.4799V17.9999H14.48L12 20.4799L9.52 17.9999H6V14.4799L3.52 11.9999L6 9.51994V5.99994H9.52L12 3.51994L14.48 5.99994H18V9.51994L20.48 11.9999L18 14.4799ZM12 6.49994C8.97 6.49994 6.5 8.96994 6.5 11.9999C6.5 15.0299 8.97 17.4999 12 17.4999C15.03 17.4999 17.5 15.0299 17.5 11.9999C17.5 8.96994 15.03 6.49994 12 6.49994ZM12 15.4999C10.07 15.4999 8.5 13.9299 8.5 11.9999C8.5 10.0699 10.07 8.49994 12 8.49994C13.93 8.49994 15.5 10.0699 15.5 11.9999C15.5 13.9299 13.93 15.4999 12 15.4999Z" fill="#8F9294"/>
<path d="M12 14C13.1046 14 14 13.1046 14 12C14 10.8954 13.1046 10 12 10C10.8954 10 10 10.8954 10 12C10 13.1046 10.8954 14 12 14Z" fill="#8F9294"/>
</svg>
