<svg width="24" height="24" viewBox="0 0 24 24" fill="none" xmlns="http://www.w3.org/2000/svg">
<path d="M22.61 18.99L13.53 9.90997C14.46 7.56997 13.98 4.80997 12.09 2.90997C9.79002 0.609971 6.21002 0.399971 3.66002 2.25997L7.50002 6.10997L6.08002 7.51997L2.25002 3.68997C0.390022 6.22997 0.600023 9.81997 2.90002 12.11C4.76002 13.97 7.47002 14.46 9.79002 13.59L18.9 22.7C19.29 23.09 19.92 23.09 20.31 22.7L22.61 20.4C23.01 20.02 23.01 19.39 22.61 18.99ZM19.61 20.59L10.15 11.13C9.54002 11.58 8.86002 11.85 8.15002 11.95C6.79002 12.15 5.36002 11.74 4.32002 10.7C3.37002 9.75997 2.93002 8.49997 3.00002 7.25997L6.09002 10.35L10.33 6.10997L7.24002 3.01997C8.48002 2.94997 9.73002 3.38997 10.68 4.32997C11.76 5.40997 12.17 6.89997 11.92 8.28997C11.8 8.99997 11.5 9.65997 11.04 10.25L20.49 19.7L19.61 20.59Z" fill="#EE0033"/>
</svg>
