<svg width="24" height="24" viewBox="0 0 24 24" fill="none" xmlns="http://www.w3.org/2000/svg">
<path opacity="0.3" d="M11.92 8.27988C12.16 6.87988 11.76 5.38988 10.68 4.31988C9.74001 3.36988 8.48001 2.92988 7.24001 2.99988L10.33 6.08988L6.09001 10.3299L3.00001 7.23988C2.93001 8.47988 3.37001 9.72988 4.31001 10.6799C5.35001 11.7199 6.78001 12.1299 8.14001 11.9299C8.85001 11.8299 9.54001 11.5499 10.14 11.1099L19.6 20.5699L20.48 19.6899L11.03 10.2399C11.5 9.63988 11.8 8.97988 11.92 8.27988Z" fill="#8F9294"/>
<path d="M22.61 18.97L13.54 9.89996C14.47 7.55996 13.99 4.79996 12.1 2.89996C9.80002 0.599962 6.22002 0.389961 3.67002 2.24996L7.50002 6.07996L6.08002 7.49996L2.25002 3.66996C0.390022 6.20996 0.600023 9.78996 2.90002 12.09C4.76002 13.95 7.47002 14.44 9.79002 13.57L18.9 22.68C19.29 23.07 19.92 23.07 20.31 22.68L22.61 20.38C23.01 20 23.01 19.36 22.61 18.97ZM19.61 20.57L10.15 11.11C9.54002 11.56 8.86002 11.83 8.15002 11.93C6.79002 12.13 5.36002 11.72 4.32002 10.68C3.37002 9.73996 2.93002 8.47996 3.00002 7.23996L6.09002 10.33L10.33 6.08996L7.24002 2.99996C8.48002 2.92996 9.73002 3.36996 10.68 4.30996C11.76 5.38996 12.17 6.87996 11.92 8.26996C11.8 8.96996 11.5 9.62996 11.04 10.22L20.49 19.67L19.61 20.57Z" fill="#8F9294"/>
</svg>
