<svg width="24" height="24" viewBox="0 0 24 24" fill="none" xmlns="http://www.w3.org/2000/svg">
<path d="M4.22363 15.228C3.70679 15.228 3.25774 15.2364 2.80868 15.228C2.16475 15.2195 2.00377 15.067 2.00377 14.4315C2.00377 14.1604 1.99529 13.8977 2.00377 13.6266C2.02071 13.2284 2.21559 13.0335 2.61381 13.025C3.05439 13.0166 3.4865 13.025 3.92709 13.025C7.48565 13.025 11.0357 13.025 14.5943 13.025C15.7212 13.025 16.399 13.6012 16.4414 14.7281C16.4922 16.1769 16.4922 17.6342 16.4414 19.0915C16.4075 20.21 15.7212 20.7946 14.6028 20.7946C11.7559 20.7946 8.90061 20.7946 6.05375 20.7946C4.9184 20.7946 4.23211 20.1168 4.23211 18.9814C4.22363 17.7444 4.22363 16.5158 4.22363 15.228Z" fill="#EE0033"/>
<path d="M10.3495 5.32328C10.9765 4.28113 11.8068 3.57789 12.9167 3.21356C15.3484 2.41712 17.9665 3.92527 18.5596 6.45863C19.1442 8.92421 17.4666 11.4322 14.9671 11.8134C14.7045 11.8558 14.4334 11.8812 14.1707 11.8812C11.6204 11.8897 9.06161 11.8897 6.51131 11.8812C3.92711 11.8727 1.89364 9.77996 2.01226 7.28049C2.09699 5.36564 3.4018 3.69651 5.19803 3.18814C7.09593 2.65435 9.01078 3.35759 10.1207 5.00131C10.1885 5.09451 10.2563 5.18771 10.3495 5.32328ZM8.68881 7.44995C8.69728 6.24681 7.66361 5.21313 6.452 5.20466C5.24039 5.20466 4.21518 6.22139 4.20671 7.44147C4.19824 8.65308 5.22344 9.68676 6.43505 9.68676C7.64666 9.69523 8.68034 8.67003 8.68881 7.44995ZM16.4584 7.433C16.4499 6.21292 15.4331 5.19619 14.2215 5.20466C13.0015 5.21313 12.0017 6.22987 12.0017 7.45842C12.0017 8.6785 13.0269 9.69523 14.2385 9.68676C15.467 9.67829 16.4668 8.66155 16.4584 7.433Z" fill="#EE0033"/>
<path d="M21.9995 16.3548C21.9995 17.4987 21.991 18.6425 21.9995 19.7778C21.9995 20.1591 21.8893 20.4726 21.542 20.659C21.1946 20.8454 20.8641 20.7861 20.5506 20.5658C19.6356 19.9304 18.712 19.3118 17.8055 18.6594C17.6953 18.5832 17.5936 18.3968 17.5936 18.2527C17.5767 16.9734 17.5767 15.6855 17.5936 14.4061C17.5936 14.2621 17.7123 14.0672 17.8309 13.974C18.712 13.347 19.6186 12.7454 20.5083 12.1185C20.8387 11.8897 21.1607 11.7965 21.5335 11.9914C21.9063 12.1862 22.008 12.5167 21.9995 12.9149C21.991 14.0757 21.9995 15.2195 21.9995 16.3548Z" fill="#EE0033"/>
</svg>
