<svg width="24" height="24" viewBox="0 0 24 24" fill="none" xmlns="http://www.w3.org/2000/svg">
<path d="M21.2 3H2.8C1.8 3 1 4.1 1 5.4V18.7C1 19.9 1.8 21 2.8 21H21.2C22.2 21 23 19.9 23 18.6V5.4C23 4.1 22.2 3 21.2 3ZM11.2 15.3C10.9 15.9 10.3 16.2 9.6 16.2H5.7C5 16.2 4.4 15.8 4.1 15.3C3.8 14.7 3.8 14 4.1 13.5C4.5 12.8 5.1 12.3 5.8 11.9C5 10.9 5 9.5 5.9 8.6C6.8 7.7 8.4 7.7 9.3 8.6C10.2 9.5 10.2 10.9 9.5 11.9C10.2 12.3 10.8 12.8 11.2 13.5C11.5 14 11.5 14.7 11.2 15.3ZM18.8 15.5H14.9C14.5 15.5 14.2 15.2 14.2 14.8C14.2 14.4 14.5 14.1 14.9 14.1H18.8C19.2 14.1 19.5 14.4 19.5 14.8C19.5 15.1 19.2 15.5 18.8 15.5ZM19.9 12.7H14.9C14.5 12.7 14.2 12.4 14.2 12C14.2 11.6 14.5 11.3 14.9 11.3H19.9C20.3 11.3 20.6 11.6 20.6 12C20.6 12.4 20.3 12.7 19.9 12.7ZM19.9 10H14.9C14.5 10 14.2 9.7 14.2 9.3C14.2 8.9 14.5 8.6 14.9 8.6H19.9C20.3 8.6 20.6 8.9 20.6 9.3C20.6 9.7 20.3 10 19.9 10Z" fill="#EE0033"/>
</svg>
