<svg width="24" height="24" viewBox="0 0 24 24" fill="none" xmlns="http://www.w3.org/2000/svg">
<path d="M16.4155 4.75154C17.2108 4.75154 17.8528 4.10951 17.8528 3.31417C17.8528 2.68172 17.2204 1.74264 16.7892 1.18686C16.5975 0.937714 16.2238 0.937714 16.0322 1.18686C15.6105 1.74264 14.9781 2.68172 14.9781 3.31417C14.9781 4.10951 15.6201 4.75154 16.4155 4.75154ZM11.6242 4.75154C12.4196 4.75154 13.0616 4.10951 13.0616 3.31417C13.0616 2.68172 12.4292 1.74264 11.9979 1.18686C11.8063 0.937714 11.4326 0.937714 11.2409 1.18686C10.8193 1.74264 10.1869 2.68172 10.1869 3.31417C10.1869 4.10951 10.8289 4.75154 11.6242 4.75154ZM6.83299 4.75154C7.62834 4.75154 8.27036 4.10951 8.27036 3.31417C8.27036 2.68172 7.63792 1.74264 7.20671 1.18686C7.01506 0.937714 6.64134 0.937714 6.44969 1.18686C6.02806 1.74264 5.39562 2.68172 5.39562 3.31417C5.39562 4.10951 6.03765 4.75154 6.83299 4.75154ZM18.2553 7.63587C18.0637 7.0705 17.527 6.66804 16.8946 6.66804H6.35387C5.72142 6.66804 5.19439 7.0705 4.99316 7.63587L3.10541 13.0691C3.03833 13.2704 3 13.4812 3 13.7016V20.5626C3 21.358 3.64203 22 4.43737 22C5.23272 22 5.87474 21.358 5.87474 20.5626V20.0835H17.3737V20.5626C17.3737 21.3484 18.0157 22 18.8111 22C19.5969 22 20.2485 21.358 20.2485 20.5626V13.7016C20.2485 13.4908 20.2101 13.2704 20.1431 13.0691L18.2553 7.63587ZM6.35387 17.2088C5.55852 17.2088 4.9165 16.5667 4.9165 15.7714C4.9165 14.976 5.55852 14.334 6.35387 14.334C7.14921 14.334 7.79124 14.976 7.79124 15.7714C7.79124 16.5667 7.14921 17.2088 6.35387 17.2088ZM16.8946 17.2088C16.0992 17.2088 15.4572 16.5667 15.4572 15.7714C15.4572 14.976 16.0992 14.334 16.8946 14.334C17.6899 14.334 18.332 14.976 18.332 15.7714C18.332 16.5667 17.6899 17.2088 16.8946 17.2088ZM4.9165 12.4175L6.13347 8.75702C6.26762 8.37372 6.63176 8.10541 7.04381 8.10541H16.2047C16.6167 8.10541 16.9808 8.37372 17.115 8.75702L18.332 12.4175H4.9165Z" fill="#EE0033"/>
</svg>
