<svg width="24" height="24" viewBox="0 0 24 24" fill="none" xmlns="http://www.w3.org/2000/svg">
<path d="M10.2251 14.0506C10.0726 14.4403 9.92855 14.8047 9.79298 15.1775C9.40322 16.2027 9.02194 17.2364 8.63219 18.2616C8.39495 18.8886 8.08992 19.1005 7.42056 19.1005C6.51395 19.1005 5.61582 19.1005 4.70922 19.1005C4.55671 19.1005 4.40419 19.1005 4.20084 19.1005C4.20084 19.4648 4.20084 19.7868 4.20084 20.1087C4.19237 20.5917 4.01444 20.7781 3.53996 20.7866C3.21798 20.795 2.88754 20.795 2.56557 20.7866C2.21818 20.7696 2.00635 20.5747 2.00635 20.2274C1.99788 18.7615 1.99788 17.2957 2.00635 15.8214C2.00635 15.474 2.20123 15.2707 2.56557 15.2707C2.9299 15.2707 3.30271 15.2622 3.66705 15.2707C4.00597 15.2792 4.1839 15.474 4.20084 15.8045C4.20932 16.1519 4.20084 16.5077 4.20084 16.906C5.03966 16.906 5.83612 16.9144 6.63258 16.8975C6.70883 16.8975 6.82745 16.7873 6.85287 16.7026C7.29346 15.5588 7.72558 14.4149 8.16618 13.2202C7.99672 13.144 7.8442 13.0762 7.70017 13.0084C6.09878 12.3475 4.4974 11.6866 2.89601 11.0257C1.98941 10.636 1.76911 10.0175 2.26054 9.1617C3.28577 7.36544 4.31099 5.56071 5.34469 3.76445C5.79376 2.98494 6.25977 2.82395 7.06469 3.17981C11.3096 5.04386 15.5546 6.91638 19.7995 8.77195C20.274 8.9753 20.6214 9.26338 20.6553 9.81412C20.6892 10.3479 20.3841 10.6699 19.9605 10.9325C17.8762 12.2289 15.7918 13.5253 13.7159 14.8386C13.2838 15.1097 12.8687 15.1605 12.3942 14.9487C11.6994 14.6352 10.9792 14.3556 10.2251 14.0506Z" fill="#EE0033"/>
<path d="M15.6562 14.9741C15.8596 14.8386 15.9952 14.7454 16.1392 14.6522C17.4695 13.8218 18.7997 12.9999 20.1215 12.1527C20.3503 12.0086 20.5367 11.9917 20.7739 12.1188C21.045 12.2628 21.3416 12.3645 21.6212 12.5C21.9686 12.6695 22.0872 12.9491 21.9347 13.305C21.4856 14.3556 21.0281 15.3978 20.5536 16.44C20.3841 16.8212 20.1045 16.9229 19.7148 16.7535C18.3845 16.1858 17.0543 15.5927 15.6562 14.9741Z" fill="#EE0033"/>
</svg>
