<svg width="25" height="24" viewBox="0 0 25 24" fill="none" xmlns="http://www.w3.org/2000/svg">
<path d="M19.6646 5H5.33148C3.76928 5 2.5 6.26928 2.5 7.83148V16.8024C2.5 18.3646 3.76928 19.6339 5.33148 19.6339H19.6685C21.2307 19.6339 22.5 18.3646 22.5 16.8024V7.83148C22.4961 6.26928 21.2268 5 19.6646 5ZM9.7564 9.50303L6.78041 12.479L9.42833 15.1269C9.65876 15.3574 9.65876 15.7284 9.42833 15.9549C9.19791 16.1853 8.82689 16.1853 8.60037 15.9549L5.53847 12.893C5.30805 12.6626 5.30805 12.2915 5.53847 12.065L8.92843 8.67506C9.15886 8.44464 9.52988 8.44464 9.7564 8.67506C9.98682 8.90158 9.98682 9.2726 9.7564 9.50303ZM14.5875 8.12439L11.4904 16.8961C11.3811 17.2007 11.0491 17.3609 10.7445 17.2554C10.4399 17.15 10.2797 16.8141 10.3891 16.5095L13.4822 7.73384C13.5916 7.42921 13.9236 7.26909 14.2282 7.37844C14.5367 7.48389 14.6968 7.81976 14.5875 8.12439ZM19.4576 12.5649L16.0677 15.9549C15.8372 16.1853 15.4662 16.1853 15.2397 15.9549C15.0093 15.7284 15.0093 15.3574 15.2397 15.1269L18.2157 12.1509L15.5678 9.50303C15.3373 9.2726 15.3373 8.90158 15.5678 8.67506C15.7982 8.44464 16.1692 8.44464 16.3957 8.67506L19.4576 11.737C19.6881 11.9635 19.6881 12.3345 19.4576 12.5649Z" fill="#EE0033"/>
</svg>
