<svg width="24" height="24" viewBox="0 0 24 24" fill="none" xmlns="http://www.w3.org/2000/svg">
<path d="M12 2C6.47581 2 2 6.47581 2 12C2 17.5242 6.47581 22 12 22C17.5242 22 22 17.5242 22 12C22 6.47581 17.5242 2 12 2ZM16.7218 15.9839C16.6573 16.0605 15.1169 17.8266 12.2903 17.8266C8.875 17.8266 6.46371 15.2742 6.46371 11.9556C6.46371 8.67742 8.96371 6.17339 12.2621 6.17339C14.9637 6.17339 16.375 7.67742 16.4315 7.74194C16.5806 7.90323 16.6008 8.14516 16.4798 8.33065L15.5766 9.72984C15.4153 9.98387 15.0605 10.0282 14.8427 9.82258C14.8347 9.81452 13.7742 8.85887 12.3468 8.85887C10.4879 8.85887 9.36694 10.2137 9.36694 11.9274C9.36694 13.5242 10.3952 15.1411 12.3629 15.1411C13.9234 15.1411 14.996 14 15.004 13.9879C15.2097 13.7621 15.5726 13.7863 15.75 14.0323L16.7379 15.3871C16.879 15.5645 16.8669 15.8105 16.7218 15.9839Z" fill="#EE0033"/>
</svg>
