<svg width="24" height="24" viewBox="0 0 24 24" fill="none" xmlns="http://www.w3.org/2000/svg">
<path d="M12 2C6.5 2 2 6.5 2 12C2 17.5 6.5 22 12 22C17.5 22 22 17.5 22 12C22 6.5 17.5 2 12 2ZM9.9 13.3C10 13.7 10.1 14 10.2 14.3C10.4 14.6 10.6 14.8 10.9 15C11.2 15.2 11.5 15.2 11.9 15.3C12.1 15.3 12.4 15.3 12.6 15.2C12.8 15.1 13 15 13.2 14.9C13.4 14.8 13.5 14.6 13.6 14.4C13.7 14.2 13.8 14 13.8 13.8H15.8C15.8 14.3 15.7 14.7 15.5 15.1C15.3 15.5 15 15.8 14.7 16.1C14.4 16.4 14 16.6 13.5 16.8C13 17 12.6 17.1 12 17.1C11.3 17.1 10.6 17 10.1 16.7C9.6 16.4 9.1 16.1 8.8 15.7C8.3 15.1 8 14.6 7.8 14C7.6 13.4 7.5 12.8 7.5 12.2V11.9C7.5 11.3 7.6 10.7 7.8 10.1C8 9.4 8.3 8.9 8.6 8.5C9 8.1 9.4 7.7 10 7.5C10.5 7.2 11.2 7.1 11.9 7.1C12.5 7.1 13 7.2 13.4 7.4C13.9 7.6 14.3 7.8 14.6 8.1C14.9 8.4 15.2 8.8 15.4 9.2C15.6 9.6 15.7 10.1 15.7 10.6H13.7C13.7 10.4 13.6 10.1 13.5 9.9C13.4 9.7 13.3 9.5 13.1 9.3C12.9 9.1 12.8 9.1 12.6 9C12.4 8.9 12.2 8.9 11.9 8.9C11.5 8.9 11.2 9 10.9 9.2C10.6 9.2 10.4 9.5 10.2 9.8C10.1 10 10 10.4 9.9 10.7C9.8 11.1 9.8 11.5 9.8 11.9V12.2C9.8 12.5 9.8 12.9 9.9 13.3Z" fill="#EE0033"/>
</svg>
