<svg width="24" height="24" viewBox="0 0 24 24" fill="none" xmlns="http://www.w3.org/2000/svg">
<path d="M22 8.24219V7.1875C22 5.98047 21.0195 5 19.8125 5H4.1875C2.98047 5 2 5.98047 2 7.1875V8.24219C2 8.35156 2.08594 8.4375 2.19531 8.4375H21.8047C21.9141 8.4375 22 8.35156 22 8.24219Z" fill="#EE0033"/>
<path d="M2 10.2773V16.6602C2 17.8125 2.98047 18.75 4.1875 18.75H19.8125C21.0195 18.75 22 17.8125 22 16.6602V10.2773C22 10.1758 21.9141 10.0898 21.8047 10.0898H2.19531C2.08594 10.0898 2 10.1719 2 10.2773ZM7 14.875C7 15.2891 6.66406 15.625 6.25 15.625H5.49609C5.08203 15.625 4.74609 15.2891 4.74609 14.875V14.125C4.74609 13.7109 5.08203 13.375 5.49609 13.375H6.24609C6.66016 13.375 6.99609 13.7109 6.99609 14.125V14.875H7Z" fill="#EE0033"/>
</svg>
