<svg width="24" height="24" viewBox="0 0 24 24" fill="none" xmlns="http://www.w3.org/2000/svg">
<path d="M20.625 4.7127V6.40859C20.625 7.9041 16.9029 9.12129 12.3125 9.12129C7.72207 9.12129 4 7.9041 4 6.4123V4.7127C4 3.2209 7.72207 2 12.3125 2C16.9029 2 20.625 3.2209 20.625 4.7127ZM20.625 8.53125V12.3498C20.625 13.8453 16.9029 15.0625 12.3125 15.0625C7.72207 15.0625 4 13.8416 4 12.3498V8.53125C5.78496 9.75957 9.0543 10.3348 12.3125 10.3348C15.5707 10.3348 18.84 9.75957 20.625 8.53125ZM20.625 14.4688V18.2873C20.625 19.7828 16.9029 21 12.3125 21C7.72207 21 4 19.7791 4 18.2873V14.4688C5.78496 15.6971 9.0543 16.2723 12.3125 16.2723C15.5707 16.2723 18.84 15.6971 20.625 14.4688Z" fill="#EE0033"/>
</svg>
