<svg width="24" height="24" viewBox="0 0 24 24" fill="none" xmlns="http://www.w3.org/2000/svg">
<path d="M11.3417 2.11966L3.21508 5.16713C2.48447 5.44062 2 6.14388 2 6.92528V15.72C2 16.431 2.40242 17.0796 3.03536 17.3961L11.1619 21.4594C11.6894 21.725 12.3106 21.725 12.8381 21.4594L20.9646 17.3961C21.6015 17.0796 22 16.4271 22 15.72V6.92528C22 6.14388 21.5155 5.44453 20.7849 5.17103L12.6583 2.12356C12.2364 1.95947 11.7675 1.95947 11.3417 2.11966ZM12.002 4.54591L19.5034 7.35896V7.40194L12.002 10.4494L4.50049 7.40194V7.35896L12.002 4.54591ZM13.2522 18.4549V12.6373L19.5034 10.0978V15.3293L13.2522 18.4549Z" fill="#EE0033"/>
</svg>
