<svg width="24" height="24" viewBox="0 0 24 24" fill="none" xmlns="http://www.w3.org/2000/svg">
<path d="M19 4H18V3C18 2.5 17.5 2 17 2C16.5 2 16 2.5 16 3V4H8V3C8 2.5 7.6 2 7 2C6.4 2 6 2.5 6 3V4H5C3.9 4 3 4.9 3 6V20C3 21.1 3.9 22 5 22H19C20.1 22 21 21.1 21 20V6C21 4.9 20.1 4 19 4ZM6 7.8H8.2C8.6 7.8 8.9 8.1 8.9 8.5V10.7C8.9 11.1 8.6 11.4 8.2 11.4H6C5.6 11.4 5.3 11.1 5.3 10.7V8.6C5.2 8.1 5.5 7.8 6 7.8ZM10.9 7.8H13.1C13.5 7.8 13.8 8.1 13.8 8.5V10.7C13.8 11.1 13.5 11.4 13.1 11.4H10.9C10.5 11.4 10.2 11.1 10.2 10.7V8.6C10.2 8.1 10.5 7.8 10.9 7.8ZM15.8 7.8H18C18.4 7.8 18.7 8.1 18.7 8.5V10.7C18.7 11.1 18.4 11.4 18 11.4H15.8C15.4 11.4 15.1 11.1 15.1 10.7V8.6C15.1 8.1 15.4 7.8 15.8 7.8Z" fill="#EE0033"/>
</svg>
