<svg width="24" height="24" viewBox="0 0 24 24" fill="none" xmlns="http://www.w3.org/2000/svg">
<path opacity="0.3" d="M15.99 9.00008H19.42C18.6 7.00008 17 5.40008 15 4.58008V8.01008C15.37 8.29008 15.71 8.63008 15.99 9.00008ZM4 12.0001C4 15.3501 6.04 18.2401 9 19.4201V15.9801C7.77 15.0501 7 13.5801 7 11.9901C7 10.4001 7.77 8.93008 9 8.00008V4.58008C6.04 5.76008 4 8.65008 4 12.0001ZM15 15.9901V19.4201C17 18.6001 18.6 17.0001 19.42 15.0001H15.99C15.71 15.3701 15.37 15.7101 15 15.9901Z" fill="#8F9294"/>
<path d="M14.82 11H21.95C21.48 6.28005 17.72 2.52005 13 2.05005V9.18005C13.85 9.49005 14.51 10.15 14.82 11ZM15 4.58005C17 5.40005 18.6 7.00005 19.42 9.00005H15.99C15.71 8.63005 15.37 8.29005 15 8.01005V4.58005ZM2 12C2 17.19 5.95 21.4501 11 21.9501V14.82C9.84 14.4 9 13.3 9 12C9 10.7 9.84 9.60005 11 9.18005V2.05005C5.95 2.55005 2 6.81005 2 12ZM9 4.58005V8.02005C7.77 8.94005 7 10.41 7 12C7 13.59 7.77 15.06 9 15.99V19.43C6.04 18.24 4 15.35 4 12C4 8.65005 6.04 5.76005 9 4.58005ZM13 14.82V21.9501C17.72 21.4801 21.48 17.72 21.95 13H14.82C14.51 13.85 13.85 14.51 13 14.82ZM15 15.99C15.37 15.71 15.71 15.38 15.99 15H19.42C18.6 17 17 18.6 15 19.42V15.99Z" fill="#8F9294"/>
</svg>
