<svg width="24" height="24" viewBox="0 0 24 24" fill="none" xmlns="http://www.w3.org/2000/svg">
<path d="M18.75 10.875V17.625C18.75 18.2437 18.2473 18.75 17.625 18.75H6.375C5.75625 18.75 5.25 18.2437 5.25 17.625V5.25H13.125L15.375 3H5.25C4.00898 3 3 4.00898 3 5.25V17.625C3 19.4883 4.51172 21 6.375 21H17.625C19.4918 21 21 19.4883 21 17.625V8.625L18.75 10.875Z" fill="#EE0033"/>
<path d="M7.74255 16.2328L12.2426 15.1078L10.5551 13.4203L8.86755 11.7328L7.74255 16.2328Z" fill="#EE0033"/>
<path d="M9.7605 11.0332L12.9421 14.2148L20.7644 6.39258C20.8875 6.26953 20.9613 6.11133 20.9753 5.94961C20.9894 5.78789 20.9367 5.64023 20.8312 5.53477L18.5285 3.23555L18.4406 3.14766C18.3421 3.04922 18.2085 3 18.0679 3C17.8992 3 17.7199 3.07031 17.5828 3.21094L17.5582 3.23555L15.3046 5.48555L9.7605 11.0332Z" fill="#EE0033"/>
</svg>
