<svg width="24" height="24" viewBox="0 0 24 24" fill="none" xmlns="http://www.w3.org/2000/svg">
<path d="M12 2C6.5 2 2 6.5 2 12C2 17.5 6.5 22 12 22C17.5 22 22 17.5 22 12C22 6.5 17.5 2 12 2ZM8.5 8C9.3 8 10 8.7 10 9.5C10 10.3 9.3 11 8.5 11C7.7 11 7 10.3 7 9.5C7 8.7 7.7 8 8.5 8ZM16.3 17H7.7C7.3 17 7.1 16.6 7.3 16.2C8.3 14.6 10 13.4 12.1 13.4C14.2 13.4 15.9 14.5 16.9 16.2C16.9 16.6 16.7 17 16.3 17ZM15.5 11C14.7 11 14 10.3 14 9.5C14 8.7 14.7 8 15.5 8C16.3 8 17 8.7 17 9.5C17 10.3 16.3 11 15.5 11Z" fill="#EE0033"/>
</svg>
