<svg width="24" height="24" viewBox="0 0 24 24" fill="none" xmlns="http://www.w3.org/2000/svg">
<path d="M20.3332 2H8.66675C7.75024 2 7 2.74951 7 3.66675V15.3335C7 16.2495 7.75024 17 8.66675 17H20.3332C21.2498 17 22 16.2495 22 15.3335V3.66675C22 2.74951 21.2498 2 20.3332 2ZM20.3332 15.3335H8.66675V3.66675H20.3332V15.3335Z" fill="#EE0033"/>
<path d="M18.6667 9.50067L18.665 6.16669C18.6657 5.70692 18.2933 5.33417 17.8325 5.33344H14.4992V6.58344L16.5305 6.58417L10.3333 12.7812L11.2155 13.6664L17.4157 7.46718L17.415 9.49994L18.6667 9.50067Z" fill="#EE0033"/>
<path d="M10.3333 18.6665V20.3335H3.66675V13.6665H5.33326V12H2.83325C2.37524 12 2 12.375 2 12.8335V21.1665C2 21.6248 2.37524 22 2.83325 22H11.1668C11.6248 22 12 21.6248 12 21.1665V18.6665H10.3333Z" fill="#EE0033"/>
</svg>
