<svg width="24" height="24" viewBox="0 0 24 24" fill="none" xmlns="http://www.w3.org/2000/svg">
<path d="M9.27065 21H4.24101C3.00981 21 2 19.9902 2 18.759V13.7798H9.27065V21Z" fill="#EE0033"/>
<path d="M20.5611 2.91271C20.4834 2.81173 20.3941 2.71464 20.3009 2.62142C19.897 2.23692 19.3532 2 18.759 2H4.24101C3.94195 2 3.65842 2.05826 3.3982 2.16701C2.83115 2.42723 2.38839 2.94767 2.16312 3.40597C2.05826 3.66619 2 3.94583 2 4.24101V11.6359H10.9873C11.1971 11.6359 11.3641 11.8029 11.3641 12.0127V21H18.759C19.9941 21 21 19.9902 21 18.759V4.24101C21 3.74387 20.8369 3.28557 20.5611 2.91271ZM18.359 10.3154H16.6423V7.4258L13.4186 10.6844L12.1758 9.60078L15.4227 6.31889L12.5331 6.21014V4.49734H18.359V10.3154Z" fill="#EE0033"/>
</svg>
