<svg width="24" height="24" viewBox="0 0 24 24" fill="none" xmlns="http://www.w3.org/2000/svg">
<path d="M11.8 8L15 11.2C15 11.1 15 11.1 15 11C15 9.3 13.7 8 12 8C11.9 8 11.9 8 11.8 8ZM7.5 8.8L9 10.4C9 10.6 9 10.8 9 11C9 12.7 10.3 14 12 14C12.2 14 12.4 14 12.6 13.9L14.2 15.4C13.5 15.8 12.8 16 12 16C9.2 16 7 13.8 7 11C7 10.2 7.2 9.5 7.5 8.8ZM2 3.3L4.3 5.6L4.7 6C3.1 7.3 1.8 9 1 11C2.7 15.4 7 18.5 12 18.5C13.6 18.5 15 18.2 16.4 17.7L16.8 18.1L19.7 21L21 19.7L3.3 2L2 3.3ZM12 6C14.8 6 17 8.2 17 11C17 11.6 16.9 12.3 16.6 12.8L19.5 15.7C21 14.4 22.2 12.8 22.9 10.9C21.2 6.5 16.9 3.4 11.9 3.4C10.5 3.4 9.2 3.7 7.9 4.1L10.1 6.3C10.7 6.1 11.4 6 12 6Z" fill="#EE0033"/>
</svg>
