<svg width="24" height="24" viewBox="0 0 24 24" fill="none" xmlns="http://www.w3.org/2000/svg">
<path fill-rule="evenodd" clip-rule="evenodd" d="M10.55 20.03L12 21.35L13.45 20.04L13.4895 20.0041C18.6174 15.3442 22 12.2703 22 8.5C22 5.42 19.58 3 16.5 3C15.3804 3 14.2898 3.33536 13.364 3.91549C12.851 4.23697 12.3886 4.63361 12 5.09C11.6114 4.63361 11.149 4.23697 10.636 3.91549C9.7102 3.33536 8.61959 3 7.5 3C4.42 3 2 5.42 2 8.5C2 12.2769 5.39442 15.3549 10.5373 20.0185L10.55 20.03ZM12.2394 18.7079C12.2401 18.7073 12.2407 18.7067 12.2413 18.7062C14.852 16.3337 16.8726 14.4939 18.2626 12.7933C19.6322 11.1178 20.2 9.79876 20.2 8.5C20.2 6.41411 18.5859 4.8 16.5 4.8C15.305 4.8 14.13 5.36508 13.3704 6.25701L12 7.86633L10.6296 6.25701C9.87004 5.36508 8.69498 4.8 7.5 4.8C5.41411 4.8 3.8 6.41411 3.8 8.5C3.8 9.79873 4.36784 11.1177 5.73704 12.7916C7.12692 14.4909 9.14792 16.3287 11.7591 18.6966L11.7617 18.6989L12.0046 18.92L12.2394 18.7079Z" fill="#EE0033"/>
</svg>
