<svg width="24" height="24" viewBox="0 0 24 24" fill="none" xmlns="http://www.w3.org/2000/svg">
<path d="M15 6H5C3.9 6 3 6.9 3 8V18C3 19.1 3.9 20 5 20H15C16.1 20 17 19.1 17 18V8C17 6.9 16.1 6 15 6Z" fill="#EE0033"/>
<path d="M8 7H6V9H8V7ZM8 11H6V13H8V11ZM8 3C6.9 3 6 3.9 6 5H8V3ZM12 15H10V17H12V15ZM18 3V5H20C20 3.9 19.1 3 18 3ZM12 3H10V5H12V3ZM8 17V15H6C6 16.1 6.9 17 8 17ZM18 13H20V11H18V13ZM18 9H20V7H18V9ZM18 17C19.1 17 20 16.1 20 15H18V17ZM14 5H16V3H14V5ZM14 17H16V15H14V17Z" fill="#EE0033"/>
<path d="M8 7H6V9H8V7Z" fill="white"/>
<path d="M8 11H6V13H8V11Z" fill="white"/>
<path d="M12 15H10V17H12V15Z" fill="white"/>
<path d="M8 17V15H6C6 16.1 6.9 17 8 17Z" fill="white"/>
<path d="M16 15H14V17H16V15Z" fill="white"/>
</svg>
