<svg width="24" height="24" viewBox="0 0 24 24" fill="none" xmlns="http://www.w3.org/2000/svg">
<path d="M13.9976 16C11.9011 16 9.80464 16 7.70816 16C6.59321 16 6.00238 15.4092 6.00238 14.3038C6.00238 11.4354 6.00238 8.55747 6.00238 5.6891C6.00238 4.60274 6.60274 4.01191 7.67957 4.00238C9.15664 4.00238 10.6337 3.99285 12.1108 4.01191C12.33 4.01191 12.5968 4.1358 12.7588 4.28827C13.2543 4.73615 13.6927 5.24121 14.1882 5.67957C14.3788 5.8511 14.6742 5.98451 14.922 5.98451C16.7135 6.0131 18.5051 5.99404 20.3061 6.00357C21.383 6.00357 21.9929 6.60393 21.9929 7.68076C22.0024 9.90113 22.0024 12.1215 21.9929 14.3419C21.9929 15.3806 21.3734 15.9905 20.3252 15.9905C18.2192 16 16.1132 16 13.9976 16Z" fill="#EE0033"/>
<path d="M4.98273 8.00476C4.98273 8.39547 4.98273 8.71947 4.98273 9.053C4.98273 10.7493 4.98273 12.455 4.98273 14.1513C4.98273 16.0381 5.96426 17.0197 7.87016 17.0197C11.0339 17.0197 14.1882 17.0197 17.352 17.0197C17.5521 17.0197 17.7522 17.0197 17.9809 17.0197C17.9809 17.6295 18.0286 18.1918 17.9714 18.735C17.8856 19.4973 17.2472 19.9928 16.4276 19.9928C14.6933 20.0024 12.9684 19.9928 11.2341 19.9928C8.7564 19.9928 6.27874 19.9928 3.80107 19.9928C2.57177 20.0024 2 19.4401 2 18.2394C2 15.3996 2 12.5503 2 9.71054C2 8.60512 2.60036 8.01429 3.70578 8.00476C4.09649 8.00476 4.49672 8.00476 4.98273 8.00476Z" fill="#EE0033"/>
</svg>
