<svg width="24" height="24" viewBox="0 0 24 24" fill="none" xmlns="http://www.w3.org/2000/svg">
<path d="M21.8857 13.5042L19.3717 18.6792C18.9724 19.4958 18.2433 20 17.4516 20H3.56252C2.92015 20 2.51737 19.1625 2.84376 18.4958L5.35768 13.3208C5.75699 12.5 6.48617 11.9958 7.27784 11.9958H21.1669C21.8093 12 22.2086 12.8375 21.8857 13.5042ZM7.27784 10.6667H18.6669V8.66667C18.6669 7.5625 17.9203 6.66667 17.0002 6.66667H11.4446L9.22231 4H3.66669C2.74654 4 2 4.89583 2 6V17.5833L4.39933 12.65C4.99309 11.4292 6.09727 10.6667 7.27784 10.6667Z" fill="#EE0033"/>
</svg>
