<svg width="24" height="24" viewBox="0 0 24 24" fill="none" xmlns="http://www.w3.org/2000/svg">
<path opacity="0.3" d="M10.93 7.83011L15.7 12.6001C15.08 10.7901 13.53 8.36011 11.99 6.36011C11.64 6.83011 11.28 7.32011 10.93 7.83011ZM12 18.0001C12.96 18.0001 13.83 17.6401 14.53 17.0801L8.81 11.3601C8.32 12.3801 8 13.3101 8 14.0001C8 16.2101 9.79 18.0001 12 18.0001Z" fill="#8F9294"/>
<path d="M12 6.35995C13.53 8.35995 15.08 10.79 15.71 12.6L17.94 14.83C17.97 14.56 18 14.28 18 14C18 10.02 12 3.19995 12 3.19995C12 3.19995 10.82 4.54995 9.5 6.38995L10.94 7.82995C11.28 7.31995 11.64 6.82995 12 6.35995ZM5.41 5.13995L4 6.54995L7.32 9.86995C6.55 11.33 6 12.79 6 14C6 17.31 8.69 20 12 20C13.52 20 14.9 19.43 15.95 18.5L18.58 21.1299L20 19.7199L5.41 5.13995ZM12 18C9.79 18 8 16.21 8 14C8 13.31 8.32 12.38 8.81 11.36L14.53 17.08C13.83 17.64 12.96 18 12 18Z" fill="#8F9294"/>
</svg>
