<svg width="24" height="24" viewBox="0 0 24 24" fill="none" xmlns="http://www.w3.org/2000/svg">
<path d="M12.3571 8C12.9429 8 13.4286 8.48571 13.4286 9.07143V15.5C13.4286 16.0857 12.9429 16.5714 12.3571 16.5714C11.7714 16.5714 11.2857 16.0857 11.2857 15.5V9.07143C11.2857 8.48571 11.7714 8 12.3571 8ZM9.14286 9.07143C9.14286 8.48571 8.65714 8 8.07143 8H3.42857C2.57143 8 2 8.71429 2 9.42857V15.1429C2 15.8571 2.57143 16.5714 3.42857 16.5714H7.71429C8.57143 16.5714 9.14286 15.8571 9.14286 15.1429V13.3571C9.14286 12.7714 8.65714 12.2857 8.07143 12.2857C7.48571 12.2857 7 12.7714 7 13.3571V14.4286H4.14286V10.1429H8.07143C8.65714 10.1429 9.14286 9.65714 9.14286 9.07143ZM22 9.07143C22 8.48571 21.5143 8 20.9286 8H17C16.2143 8 15.5714 8.64286 15.5714 9.42857V15.5C15.5714 16.0857 16.0571 16.5714 16.6429 16.5714C17.2286 16.5714 17.7143 16.0857 17.7143 15.5V13.7143H19.5C20.0857 13.7143 20.5714 13.2286 20.5714 12.6429C20.5714 12.0571 20.0857 11.5714 19.5 11.5714H17.7143V10.1429H20.9286C21.5143 10.1429 22 9.65714 22 9.07143Z" fill="#EE0033"/>
</svg>
