<svg width="24" height="24" viewBox="0 0 24 24" fill="none" xmlns="http://www.w3.org/2000/svg">
<path d="M2 11.248V19.8027C2 20.4629 2.53516 20.998 3.19531 20.998H8.97656V11.2559L2 11.248Z" fill="#EE0033"/>
<path d="M10.207 11.248V20.998H20.8047C21.4648 20.998 22 20.4629 22 19.8027V15.1152V11.248H10.207ZM13.7187 14.0215H18.1055C18.4453 14.0215 18.7188 14.2949 18.7188 14.6348C18.7188 14.9746 18.4453 15.248 18.1055 15.248H13.7187C13.3789 15.248 13.1055 14.9746 13.1055 14.6348C13.1055 14.2949 13.3828 14.0215 13.7187 14.0215ZM13.7187 16.4785H16.668C17.0078 16.4785 17.2812 16.752 17.2812 17.0918C17.2812 17.4316 17.0078 17.7051 16.668 17.7051H13.7187C13.3789 17.7051 13.1055 17.4316 13.1055 17.0918C13.1055 16.752 13.3828 16.4785 13.7187 16.4785Z" fill="#EE0033"/>
<path d="M20.8047 8.58008H12.8125C13.0859 8.25977 13.3008 8.00977 13.3203 7.99414C14.2383 7.08008 14.2383 5.59961 13.3203 4.68555C12.4023 3.77148 10.9102 3.77148 9.98828 4.68555C9.79297 4.88086 9.60547 5.16992 9.44141 5.49805C9.27734 5.16992 9.09375 4.88086 8.89453 4.68555C7.97656 3.77148 6.48438 3.77148 5.5625 4.68555C4.64453 5.59961 4.64453 7.08008 5.5625 7.99414C5.58203 8.01367 5.79688 8.25977 6.07422 8.58008H3.19531C2.53516 8.58008 2 9.1543 2 9.81445V10.1387H7.84375H11.5273H22V9.81445C22 9.1543 21.4648 8.58008 20.8047 8.58008ZM6.43359 7.15039C6.19141 6.95508 6.10547 6.64258 6.10547 6.35352C6.10547 5.35352 7.32031 4.84961 8.02734 5.55664C8.50391 6.0332 8.8125 7.30273 8.85156 7.99805C8.42969 8.07617 7.18359 7.75586 6.43359 7.15039ZM12.4492 7.15039C12.1211 7.47852 10.4492 8.07617 10.0312 7.99805C10.0703 7.28711 10.3555 6.06055 10.8555 5.55664C11.0742 5.33789 11.3633 5.22852 11.6523 5.22852C12.6523 5.22852 13.1562 6.44336 12.4492 7.15039Z" fill="#EE0033"/>
</svg>
