<svg width="24" height="24" viewBox="0 0 24 24" fill="none" xmlns="http://www.w3.org/2000/svg">
<path d="M17.5 15V13H18.6L19.5 15H21L20.1 12.9C20.6 12.6 21 12.1 21 11.5V10.5C21 9.69999 20.2999 8.99999 19.5 8.99999H16V13.86L17.14 15H17.5ZM17.5 10.5H19.5V11.5H17.5V10.5ZM13 10.5V10.86L14.5 12.36V10.5C14.5 9.69999 13.8 8.99999 13 8.99999H11.14L12.64 10.5H13ZM2.50995 2.48999L1.44995 3.54999L6.89995 8.99999H6.49995V11H4.49995V8.99999H2.99995V15H4.49995V12.5H6.49995V15H7.99995V10.1L9.49995 11.6V15H12.9L20.5 22.6L21.5599 21.54L2.50995 2.48999Z" fill="#8F9294"/>
</svg>
