<svg width="24" height="24" viewBox="0 0 24 24" fill="none" xmlns="http://www.w3.org/2000/svg">
<path d="M22.0833 11.25H17.5C17.0417 11.25 16.5833 11.6167 16.5833 12.1667V20.4167C16.5833 20.875 17.0417 21.3333 17.5 21.3333H22.0833C22.5417 21.3333 23 20.875 23 20.4167V12.1667C23 11.6167 22.5417 11.25 22.0833 11.25ZM22.0833 19.5H17.5V13.0833H22.0833V19.5ZM19.3333 3H2.83333C1.825 3 1 3.825 1 4.83333V15.8333C1 16.8417 1.825 17.6667 2.83333 17.6667H9.25V19.5H8.33333C7.78333 19.5 7.41667 19.9583 7.41667 20.4167C7.41667 20.875 7.78333 21.3333 8.33333 21.3333H13.8333C14.3833 21.3333 14.75 20.875 14.75 20.4167C14.75 19.9583 14.3833 19.5 13.8333 19.5H12.9167V17.6667H15.025C15.575 17.6667 15.6667 17.3 15.6667 16.75C15.6667 16.2 15.6667 15.1 15.6667 14.55V11.525C15.6667 10.975 16.2167 10.425 16.7667 10.425H18.9667C19.425 10.425 19.8833 10.425 20.3417 10.425C20.8 10.425 21.2583 10.0583 21.2583 9.50833L21.1667 4.83333C21.1667 3.825 20.3417 3 19.3333 3Z" fill="#EE0033"/>
<path d="M11.3125 8.40474L10.1667 4.83331L9.02087 8.40474H5.58337L8.44796 10.5476L7.30212 14L10.1667 11.8571L13.0313 14L11.8855 10.5476L14.75 8.40474H11.3125Z" fill="white"/>
</svg>
