<svg width="24" height="24" viewBox="0 0 24 24" fill="none" xmlns="http://www.w3.org/2000/svg">
<path d="M20.1818 4H3.81818C2.81818 4 2 4.81818 2 5.81818C2 5.81818 2 8.54545 2 11.0909H11.3636V9.36364C11.3636 8.90909 11.9091 8.72727 12.1818 9L14.9091 11.7273C15.0909 11.9091 15.0909 12.1818 14.9091 12.4545L12.1818 15.1818C11.9091 15.4545 11.3636 15.2727 11.3636 14.8182V13.0909H2C2 14.5455 2 15.6364 2 15.8182V18.5455C2 19.5455 2.81818 20.3636 3.81818 20.3636H20.1818C21.1818 20.3636 22 19.5455 22 18.5455V5.81818C22 4.81818 21.1818 4 20.1818 4Z" fill="#EE0033"/>
</svg>
