<svg width="24" height="24" viewBox="0 0 24 24" fill="none" xmlns="http://www.w3.org/2000/svg">
<path d="M6.47717 7.54982C3.17428 10.8527 3.17428 16.2199 6.47717 19.5228C8.12862 21.1743 10.2988 22 12.469 22C14.6391 22 16.8093 21.1743 18.4608 19.5228C21.7637 16.2199 21.7637 10.8527 18.4608 7.54982L13.2206 2.30965C12.8077 1.89678 12.1408 1.89678 11.7279 2.30965L6.47717 7.54982ZM12.469 19.8933C10.7752 19.8933 9.17666 19.237 7.98042 18.0302C6.77359 16.8233 6.11724 15.2354 6.11724 13.5416C6.11724 11.8478 6.77359 10.2493 7.98042 9.05306L12.469 4.55392V19.8933Z" fill="#EE0033"/>
</svg>
