<svg width="24" height="24" viewBox="0 0 24 24" fill="none" xmlns="http://www.w3.org/2000/svg">
<path d="M12.7832 3.44379L7.25319 8.98379C6.88319 9.35379 6.67319 9.86379 6.67319 10.3938V20.3838C6.67319 21.4838 7.57319 22.3838 8.67319 22.3838H17.6632C18.4632 22.3838 19.1832 21.9038 19.4932 21.1738L22.7532 13.5638C23.6032 11.5838 22.1532 9.38379 20.0032 9.38379H14.3532L15.3032 4.80379C15.4032 4.30379 15.2532 3.79379 14.8932 3.43379C14.3032 2.85379 13.3632 2.85379 12.7832 3.44379ZM2.66319 22.3838C3.76319 22.3838 4.66319 21.4838 4.66319 20.3838V12.3838C4.66319 11.2838 3.76319 10.3838 2.66319 10.3838C1.56319 10.3838 0.663187 11.2838 0.663187 12.3838V20.3838C0.663187 21.4838 1.56319 22.3838 2.66319 22.3838Z" fill="#EE0033"/>
</svg>
