<svg width="24" height="24" viewBox="0 0 24 24" fill="none" xmlns="http://www.w3.org/2000/svg">
<path d="M14.4813 9.5187C16.5795 11.6204 16.5514 14.9909 14.4954 17.061C14.4918 17.0645 14.4883 17.0716 14.4813 17.0751L12.1195 19.4369C10.0353 21.521 6.64727 21.521 4.56312 19.4369C2.47896 17.3527 2.47896 13.9647 4.56312 11.8805L5.86703 10.5766C6.21146 10.2322 6.80894 10.4606 6.82651 10.9491C6.8476 11.5712 6.96007 12.1968 7.16743 12.8013C7.23772 13.0052 7.18852 13.2336 7.03388 13.3848L6.57346 13.8452C5.58938 14.8292 5.55775 16.4354 6.53129 17.43C7.51538 18.4352 9.1356 18.4387 10.1267 17.4476L12.4885 15.0858C13.4796 14.0947 13.4761 12.492 12.4885 11.508C12.3585 11.3779 12.2284 11.276 12.1265 11.2057C11.9789 11.1038 11.8875 10.9421 11.884 10.7629C11.87 10.3903 12 10.0072 12.2952 9.71551L13.0368 8.97393C13.2301 8.78063 13.5359 8.75603 13.7608 8.91419C14.0174 9.09343 14.2599 9.29728 14.4813 9.5187ZM19.4334 4.56312C17.3492 2.47896 13.9611 2.47896 11.877 4.56312L9.51518 6.92492C9.51167 6.92844 9.50464 6.93547 9.50112 6.93898C7.44157 9.00908 7.41345 12.3796 9.51518 14.4813C9.7366 14.7027 9.97911 14.9066 10.2357 15.0858C10.4606 15.244 10.7664 15.2194 10.9597 15.0261L11.7013 14.2845C11.9965 13.9893 12.1265 13.6097 12.1125 13.2371C12.1054 13.0579 12.0141 12.8962 11.87 12.7943C11.768 12.724 11.638 12.6221 11.508 12.492C10.5204 11.5044 10.5168 9.9053 11.508 8.91419L13.8698 6.55238C14.8609 5.56126 16.4811 5.56478 17.4652 6.56995C18.4423 7.56458 18.4106 9.16724 17.423 10.1548L16.9626 10.6152C16.808 10.7699 16.7588 10.9948 16.8291 11.1987C17.0364 11.8032 17.1454 12.4288 17.17 13.0509C17.1875 13.5394 17.785 13.7678 18.1295 13.4234L19.4334 12.1195C21.5175 10.0353 21.5175 6.64727 19.4334 4.56312Z" fill="#EE0033"/>
</svg>
