<svg width="24" height="24" viewBox="0 0 24 24" fill="none" xmlns="http://www.w3.org/2000/svg">
<path d="M14.875 13.2904C14.4371 13.2904 14.0846 13.6467 14.0846 14.0809V17.25C14.0846 17.6879 13.7283 18.0404 13.2941 18.0404H10.9191V6.16543C10.9191 5.49004 10.4887 4.88516 9.83926 4.65879L9.60547 4.58086H13.2941C13.732 4.58086 14.0846 4.93711 14.0846 5.37129V7.74629C14.0846 8.18418 14.4371 8.53672 14.875 8.53672C15.3129 8.53672 15.6654 8.18047 15.6654 7.74629V5.375C15.6654 4.06504 14.6004 3 13.2904 3H4.78125C4.75156 3 4.72559 3.01484 4.6959 3.01855C4.65879 3.01484 4.62168 3 4.58086 3C3.70879 3 3 3.70879 3 4.58457V18.8346C3 19.51 3.43047 20.1148 4.07988 20.3412L8.84101 21.9258C9.0043 21.974 9.16387 22 9.33086 22C10.2029 22 10.9154 21.2912 10.9154 20.4154V19.625H13.2904C14.6004 19.625 15.6654 18.56 15.6654 17.25V14.0846C15.6654 13.6467 15.3129 13.2904 14.875 13.2904Z" fill="#EE0033"/>
<path d="M21.7662 10.3551L18.6008 7.18967C18.3744 6.96331 18.033 6.89651 17.7398 7.01897C17.443 7.14143 17.25 7.43089 17.25 7.75003V10.125H14.0846C13.6467 10.125 13.2941 10.4813 13.2941 10.9155C13.2941 11.3496 13.6504 11.7059 14.0846 11.7059H17.25V14.0809C17.25 14.4 17.443 14.6895 17.7398 14.8119C18.0367 14.9344 18.3781 14.8676 18.6008 14.6412L21.7662 11.4758C22.0779 11.1678 22.0779 10.6668 21.7662 10.3551Z" fill="#EE0033"/>
</svg>
