<svg width="24" height="24" viewBox="0 0 24 24" fill="none" xmlns="http://www.w3.org/2000/svg">
<path d="M22 21.7502C22 22.9924 21.1602 24.0002 20.125 24.0002H3.875C2.83984 24.0002 2 22.9924 2 21.7502V9.408C2 8.71894 2.26562 8.06269 2.71875 7.63613C3.69141 6.72206 4.49609 5.97675 9.13281 1.94081C9.78906 1.36894 11.0938 -0.0138743 12 0.000188164C12.9062 -0.0185618 14.2109 1.36894 14.8672 1.94081C19.5039 5.97675 20.3086 6.72206 21.2812 7.63613C21.7344 8.06269 22 8.71425 22 9.408V21.7502ZM19.4336 12.5346C19.332 12.3611 19.1328 12.3189 18.9922 12.4455C18.1016 13.2377 16.8242 14.3533 14.8672 16.0596C14.2109 16.6361 12.9062 18.0189 12 18.0002C11.0938 18.0143 9.78906 16.6361 9.13281 16.0596C7.17578 14.3533 5.90234 13.2377 5.00781 12.4455C4.86719 12.3189 4.66406 12.3611 4.56641 12.5346L4.21094 13.1533C4.11719 13.3221 4.14844 13.5471 4.28125 13.6689C5.17578 14.4611 6.44922 15.5768 8.39453 17.2736C9.1875 17.9674 10.6016 19.5143 12 19.5049C13.3945 19.5143 14.8125 17.9674 15.6055 17.2736C17.5547 15.5768 18.8242 14.4611 19.7188 13.6689C19.8555 13.5471 19.8867 13.3221 19.7891 13.1533L19.4336 12.5346Z" fill="#EE0033"/>
</svg>
