<svg width="24" height="24" viewBox="0 0 24 24" fill="none" xmlns="http://www.w3.org/2000/svg">
<path d="M1.91667 6.66667C1.4125 6.66667 1 7.07917 1 7.58333V11.25H1.00917L1 19.5C1 20.5083 1.825 21.3333 2.83333 21.3333H18.4167C18.9208 21.3333 19.3333 20.9208 19.3333 20.4167C19.3333 19.9125 18.9208 19.5 18.4167 19.5H3.75C3.24583 19.5 2.83333 19.0875 2.83333 18.5833V7.58333C2.83333 7.07917 2.42083 6.66667 1.91667 6.66667ZM21.1667 4.83333H13.8333L12.5408 3.54083C12.1925 3.1925 11.725 3 11.2392 3H6.5C5.49167 3 4.67583 3.825 4.67583 4.83333L4.66667 15.8333C4.66667 16.8417 5.49167 17.6667 6.5 17.6667H21.1667C22.175 17.6667 23 16.8417 23 15.8333V6.66667C23 5.65833 22.175 4.83333 21.1667 4.83333ZM7.96667 14.1833L11.1842 9.89333C11.3675 9.655 11.725 9.64583 11.9175 9.88417L14.7592 13.5417L16.6842 11.2225C16.8675 10.9933 17.2158 11.0025 17.3992 11.2317L19.6817 14.165C19.92 14.4675 19.7 14.9075 19.3242 14.9075H8.33333C7.9575 14.9167 7.7375 14.4858 7.96667 14.1833Z" fill="#EE0033"/>
</svg>
