<svg width="24" height="24" viewBox="0 0 24 24" fill="none" xmlns="http://www.w3.org/2000/svg">
<path d="M11.7877 21.5C12.7854 21.5 13.5926 20.6928 13.5926 19.6951H9.98285C9.98285 20.6928 10.7901 21.5 11.7877 21.5ZM19.3066 17.2281L18.1366 16.0581V10.6163C18.1366 7.57791 15.9961 5.03837 13.1482 4.42163V3.36047C13.1482 2.60767 12.5405 2 11.7877 2C11.0349 2 10.4273 2.60767 10.4273 3.36047V4.42163C7.57936 5.03837 5.4389 7.57791 5.4389 10.6163V16.0581L4.2689 17.2281C3.6975 17.7995 4.09657 18.7791 4.90378 18.7791H18.6626C19.4789 18.7791 19.878 17.7995 19.3066 17.2281ZM12.6947 15.1512H10.8808V13.3372H12.6947V15.1512ZM12.6947 10.6163C12.6947 11.1151 12.2866 11.5233 11.7877 11.5233C11.2889 11.5233 10.8808 11.1151 10.8808 10.6163V8.80233C10.8808 8.30349 11.2889 7.89535 11.7877 7.89535C12.2866 7.89535 12.6947 8.30349 12.6947 8.80233V10.6163Z" fill="#EE0033"/>
</svg>
