<svg width="24" height="24" viewBox="0 0 24 24" fill="none" xmlns="http://www.w3.org/2000/svg">
<path d="M20.335 2H8.66504C7.74707 2 7 2.75195 7 3.66504V15.3301C7 16.248 7.75195 16.9951 8.66504 16.9951H20.3301C21.248 16.9951 21.9951 16.2432 21.9951 15.3301V3.66504C22 2.75195 21.248 2 20.335 2ZM17.415 9.5V7.46875L11.2139 13.6699L10.3301 12.7861L16.5313 6.58496H14.5V5.33496H17.835C18.2939 5.33496 18.6699 5.70605 18.665 6.16992V9.50488L17.415 9.5Z" fill="#EE0033"/>
<path d="M10.3349 18.665V20.3301H3.66504V13.665H5.33007V12H2.83496C2.37598 12 2 12.376 2 12.835V21.1699C2 21.6289 2.37598 22.0049 2.83496 22.0049H11.1699C11.6289 22.0049 12.0049 21.6289 12.0049 21.1699V18.6699H10.3349V18.665Z" fill="#EE0033"/>
</svg>
