<svg width="24" height="24" viewBox="0 0 24 24" fill="none" xmlns="http://www.w3.org/2000/svg">
<path d="M18 24H11.45C10.37 24 9.31001 23.55 8.56001 22.77L1.26001 15.16L3.33001 13.33C3.95001 12.78 4.86001 12.67 5.59001 13.06L8.00001 14.34V4.78999C8.00001 3.40999 9.12001 2.28999 10.5 2.28999C10.67 2.28999 10.84 2.30999 11.01 2.33999C11.1 1.03999 12.18 0.00999451 13.5 0.00999451C14.36 0.00999451 15.11 0.439995 15.56 1.09999C15.85 0.979995 16.17 0.919995 16.5 0.919995C17.88 0.919995 19 2.03999 19 3.41999V3.69999C19.16 3.66999 19.33 3.64999 19.5 3.64999C20.88 3.64999 22 4.76999 22 6.14999V20C22 22.21 20.21 24 18 24ZM4.14001 15.28L10 21.38C10.38 21.77 10.9 22 11.44 22H18C19.1 22 20 21.1 20 20V6.14999C20 5.86999 19.78 5.64999 19.5 5.64999C19.22 5.64999 19 5.86999 19 6.14999V12H17V3.41999C17 3.13999 16.78 2.91999 16.5 2.91999C16.22 2.91999 16 3.13999 16 3.41999V12H14V2.50999C14 2.22999 13.78 2.00999 13.5 2.00999C13.22 2.00999 13 2.22999 13 2.50999V12H11V4.78999C11 4.50999 10.78 4.28999 10.5 4.28999C10.22 4.28999 10 4.51999 10 4.78999V17.66L4.65001 14.83L4.14001 15.28Z" fill="#EE0033"/>
</svg>
