<svg width="24" height="24" viewBox="0 0 24 24" fill="none" xmlns="http://www.w3.org/2000/svg">
<path d="M22 8.24219V6.1875C22 4.98047 21.0195 4 19.8125 4H4.1875C2.98047 4 2 4.98047 2 6.1875V8.24219C2 8.35156 2.08594 8.4375 2.19531 8.4375H21.8047C21.9141 8.4375 22 8.35156 22 8.24219Z" fill="#EE0033"/>
<path d="M2 10.8828V17.5625C2 18.7695 2.98047 19.75 4.1875 19.75H19.8125C21.0195 19.75 22 18.7695 22 17.5625V10.8828C22 10.7734 21.9141 10.6875 21.8047 10.6875H2.19531C2.08594 10.6875 2 10.7734 2 10.8828ZM9.5625 16C9.5625 16.3438 9.28125 16.625 8.9375 16.625H5.75C5.40625 16.625 5.125 16.3438 5.125 16V13.8897C5.125 13.546 5.40625 13.2647 5.75 13.2647H8.9375C9.28125 13.2647 9.5625 13.546 9.5625 13.8897V16Z" fill="#EE0033"/>
</svg>
