<svg width="24" height="24" viewBox="0 0 24 24" fill="none" xmlns="http://www.w3.org/2000/svg">
<path fill-rule="evenodd" clip-rule="evenodd" d="M6.65 14.87C6.57158 14.9484 6.49208 15.0273 6.41198 15.1069L6.41176 15.1071C5.15391 16.3559 3.74798 17.7516 4.03 19.66C4.32 20.68 5.05 21.69 6.36 21.98C6.69927 22.0497 7.38416 21.9596 8.26906 21.8431L8.2691 21.8431L8.26914 21.8431L8.26916 21.8431C9.28826 21.709 10.5726 21.54 11.9 21.54H12.08C13.4186 21.54 14.7136 21.709 15.7368 21.8425L15.7369 21.8425L15.737 21.8425L15.7371 21.8426C16.6093 21.9564 17.2841 22.0444 17.62 21.98C18.93 21.69 19.66 20.67 19.95 19.66C19.9999 19 19.8 17.94 19.4999 17.5L16.4437 13.8056C15.9266 13.1961 15.424 12.6038 14.86 11.95C14.4 11.41 13.81 10.87 13.11 10.63C13 10.59 12.89 10.56 12.78 10.54C12.53 10.5 12.26 10.5 12 10.5C11.74 10.5 11.47 10.5 11.21 10.55C11.1 10.57 10.99 10.6 10.88 10.64C10.18 10.88 9.6 11.42 9.13 11.96C8.81771 12.3261 8.52334 12.6731 8.23372 13.0144L8.23346 13.0147C7.71636 13.6242 7.21398 14.2163 6.65 14.87ZM10.4555 13.1027C10.1471 13.4642 9.85607 13.8073 9.56812 14.1466L8.23372 13.0144L9.56812 14.1466L9.56605 14.1491C9.05002 14.7573 8.54371 15.354 7.97502 16.0132L7.93296 16.0619L7.88743 16.1074C7.8069 16.188 7.72565 16.2686 7.64641 16.3473L7.6447 16.349C6.98738 17.0016 6.46966 17.5263 6.11959 18.0761C5.82725 18.5352 5.71794 18.9123 5.74875 19.2954C5.92122 19.8033 6.23511 20.1337 6.67019 20.2544C6.67029 20.2544 6.6704 20.2544 6.6705 20.2544C6.72917 20.2542 6.8213 20.2499 6.95736 20.238C7.23536 20.2137 7.58548 20.168 8.04074 20.1081L8.07365 20.1038C9.07912 19.9714 10.4575 19.79 11.9 19.79H12.08C13.5328 19.79 14.921 19.9712 15.9309 20.103L15.9633 20.1072C16.4117 20.1658 16.7579 20.2106 17.0333 20.2349C17.167 20.2467 17.2591 20.2512 17.319 20.2518C17.7249 20.1351 18.0285 19.8276 18.2059 19.3634C18.2003 19.2261 18.1808 19.0423 18.1408 18.8438C18.1129 18.7056 18.081 18.5911 18.0524 18.5094C18.0492 18.5004 18.0463 18.4923 18.0436 18.4851L15.1023 14.9294C14.5872 14.3224 14.0911 13.7378 13.535 13.0932L13.5278 13.0848L13.5278 13.0848C13.14 12.6296 12.7994 12.3735 12.5424 12.2854L12.5271 12.2802L12.5119 12.2746C12.4987 12.2698 12.4881 12.2667 12.4799 12.2646C12.3926 12.2533 12.2641 12.25 12 12.25C11.7106 12.25 11.6091 12.2553 11.5405 12.2685L11.5318 12.2702L11.523 12.2718C11.5145 12.2733 11.4997 12.2768 11.4781 12.2846L11.4629 12.2902L11.4476 12.2954C11.197 12.3813 10.8692 12.6285 10.4555 13.1027ZM6.63141 20.2536C6.63142 20.2536 6.63236 20.2537 6.63417 20.2538L6.63141 20.2536ZM17.0129 9.244C17.0044 9.32817 17 9.41357 17 9.5C17 10.8807 18.1193 12 19.5 12C20.8807 12 22 10.8807 22 9.5C22 8.11929 20.8807 7 19.5 7C19.3127 7 19.1302 7.0206 18.9547 7.05965C17.9172 7.29045 17.1226 8.16594 17.0129 9.244ZM17.4871 5.756C17.4956 5.67183 17.5 5.58643 17.5 5.5C17.5 4.11929 16.3807 3 15 3C14.1733 3 13.4402 3.40132 12.9851 4.01977C12.6802 4.43416 12.5 4.94604 12.5 5.5C12.5 6.05396 12.6802 6.56584 12.9851 6.98023C13.4402 7.59868 14.1733 8 15 8C15.1873 8 15.3698 7.9794 15.5453 7.94036C16.5828 7.70955 17.3774 6.83406 17.4871 5.756ZM11.0149 6.98024C11.3198 6.56584 11.5 6.05396 11.5 5.5C11.5 4.94604 11.3198 4.43416 11.0149 4.01976C10.5598 3.40131 9.82675 3 9 3C7.61929 3 6.5 4.11929 6.5 5.5C6.5 5.58643 6.50439 5.67183 6.51295 5.756C6.6226 6.83406 7.41723 7.70955 8.4547 7.94035C8.63023 7.9794 8.81271 8 9 8C9.82675 8 10.5598 7.59869 11.0149 6.98024ZM6.98705 9.244C6.8774 8.16594 6.08277 7.29045 5.0453 7.05964C4.86977 7.0206 4.68729 7 4.5 7C3.11929 7 2 8.11929 2 9.5C2 10.8807 3.11929 12 4.5 12C5.88071 12 7 10.8807 7 9.5C7 9.41357 6.99561 9.32817 6.98705 9.244ZM4.5 10.25C4.91421 10.25 5.25 9.91421 5.25 9.5C5.25 9.08579 4.91421 8.75 4.5 8.75C4.08579 8.75 3.75 9.08579 3.75 9.5C3.75 9.91421 4.08579 10.25 4.5 10.25ZM9 6.25C9.41421 6.25 9.75 5.91421 9.75 5.5C9.75 5.08579 9.41421 4.75 9 4.75C8.58579 4.75 8.25 5.08579 8.25 5.5C8.25 5.91421 8.58579 6.25 9 6.25ZM15 6.25C15.4142 6.25 15.75 5.91421 15.75 5.5C15.75 5.08579 15.4142 4.75 15 4.75C14.5858 4.75 14.25 5.08579 14.25 5.5C14.25 5.91421 14.5858 6.25 15 6.25ZM19.5 10.25C19.9142 10.25 20.25 9.91421 20.25 9.5C20.25 9.08579 19.9142 8.75 19.5 8.75C19.0858 8.75 18.75 9.08579 18.75 9.5C18.75 9.91421 19.0858 10.25 19.5 10.25Z" fill="#EE0033"/>
</svg>
