<svg width="24" height="24" viewBox="0 0 24 24" fill="none" xmlns="http://www.w3.org/2000/svg">
<path opacity="0.3" d="M4 12.0001C4 16.0701 7.06 19.4401 11 19.9301V4.07007C7.06 4.56007 4 7.93007 4 12.0001ZM13 19.9301C16.61 19.4801 19.48 16.6101 19.93 13.0001H13V19.9301ZM13 4.07007V11.0001H19.93C19.48 7.39007 16.61 4.52007 13 4.07007Z" fill="#8F9294"/>
<path d="M12 2C6.48 2 2 6.48 2 12C2 17.52 6.48 22 12 22C17.52 22 22 17.52 22 12C22 6.48 17.52 2 12 2ZM11 19.93C7.06 19.44 4 16.07 4 12C4 7.93 7.06 4.56 11 4.07V19.93ZM13 19.93V13H19.93C19.48 16.61 16.61 19.48 13 19.93ZM13 11V4.07C16.61 4.52 19.48 7.39 19.93 11H13Z" fill="#8F9294"/>
</svg>
