<svg width="24" height="24" viewBox="0 0 24 24" fill="none" xmlns="http://www.w3.org/2000/svg">
<g clip-path="url(#clip0)">
<path d="M1.41 1.13L0 2.54L4.39 6.93L6.6 11.59L5.25 14.04C5.09 14.32 5 14.65 5 15C5 16.1 5.9 17 7 17H14.46L15.84 18.38C15.34 18.74 15.01 19.33 15.01 20C15.01 21.1 15.9 22 17 22C17.67 22 18.26 21.67 18.62 21.16L21.46 24L22.87 22.59L1.41 1.13ZM7 15L8.1 13H10.46L12.46 15H7Z" fill="#8F9294"/>
<path opacity="0.3" d="M18.31 6H9.12L14.11 11H15.55L18.31 6Z" fill="#8F9294"/>
<path d="M20 4H7.12001L9.12001 6H18.31L15.55 11H14.11L16.05 12.94C16.59 12.8 17.04 12.45 17.3 11.97L20.88 5.48C21.25 4.82 20.76 4 20 4ZM7.00001 18C5.90001 18 5.01001 18.9 5.01001 20C5.01001 21.1 5.90001 22 7.00001 22C8.10001 22 9.00001 21.1 9.00001 20C9.00001 18.9 8.10001 18 7.00001 18Z" fill="#8F9294"/>
</g>
<defs>
<clipPath id="clip0">
<rect width="24" height="24" fill="white"/>
</clipPath>
</defs>
</svg>
