<svg width="24" height="24" viewBox="0 0 24 24" fill="none" xmlns="http://www.w3.org/2000/svg">
<path d="M15.5398 13.8932C17.7399 10.7753 17.011 6.46968 13.8932 4.26963C10.7753 2.06958 6.46968 2.79843 4.26963 5.91629C2.06958 9.03415 2.79843 13.3398 5.91629 15.5398C8.14334 17.1055 11.0722 17.227 13.4208 15.8503L18.5092 20.9117C19.0626 21.4921 19.9669 21.5191 20.5473 20.9657C21.1277 20.4123 21.1547 19.508 20.6013 18.9276C20.5878 18.9141 20.5608 18.8871 20.5473 18.8736L15.5398 13.8932ZM9.89798 14.3656C7.44148 14.3656 5.44389 12.368 5.44389 9.91148C5.44389 7.45498 7.44148 5.45739 9.89798 5.45739C12.3545 5.45739 14.3521 7.44148 14.3521 9.89798C14.3521 12.368 12.368 14.3656 9.89798 14.3656Z" fill="#EE0033"/>
</svg>
