<svg width="24" height="24" viewBox="0 0 24 24" fill="none" xmlns="http://www.w3.org/2000/svg">
<path d="M22 12C22 6.48438 17.5156 2 12 2C6.48438 2 2 6.48438 2 12C2 17.5117 6.48438 22 12 22C17.5156 22 22 17.5156 22 12ZM12.9805 11.9844C12.9805 12.5078 12.5547 12.9336 12.0312 12.9336C11.5078 12.9336 11.082 12.5078 11.082 11.9844V7.05078C11.082 6.52734 11.5078 6.10156 12.0312 6.10156C12.5547 6.10156 12.9805 6.52734 12.9805 7.05078V11.9844ZM18.457 12.0156C18.457 15.5742 15.5586 18.4727 12 18.4727C8.44141 18.4727 5.54297 15.5781 5.54297 12.0156C5.54297 10.2891 6.21484 8.66797 7.4375 7.44922C7.62109 7.26562 7.86719 7.17188 8.10938 7.17188C8.35156 7.17188 8.59375 7.26562 8.78125 7.44922C9.15234 7.82031 9.15234 8.42188 8.78125 8.79297C7.91797 9.65234 7.44531 10.8008 7.44531 12.0195C7.44531 14.5312 9.49219 16.5781 12.0039 16.5781C14.5156 16.5781 16.5625 14.5352 16.5625 12.0195C16.5625 10.8008 16.0898 9.65625 15.2266 8.79688C14.8555 8.42578 14.8555 7.82422 15.2266 7.45312C15.5977 7.08203 16.1992 7.08203 16.5703 7.45312C17.7852 8.67188 18.457 10.293 18.457 12.0156Z" fill="#EE0033"/>
</svg>
