<svg width="24" height="24" viewBox="0 0 24 24" fill="none" xmlns="http://www.w3.org/2000/svg">
<path d="M12.7 21.6C10.2 21.6 7.8 20.6 6 18.8C5.9 18.7 5.9 18.4 6 18.3L7.5 16.8C7.6 16.7 7.7 16.7 7.7 16.7C7.8 16.7 7.9 16.7 7.9 16.8C9.9 18.9 13 19.4 15.5 18.1C18.1 16.8 19.5 14 19.1 11.2C18.7 8.39999 16.4 6.19999 13.6 5.69999C10.8 5.29999 8 6.69999 6.7 9.29999C6.4 10.3 6.2 11.1 6.1 12C6.1 12.1 6.1 12.2 6.1 12.3H8.1C8.2 12.3 8.4 12.4 8.4 12.5C8.5 12.6 8.4 12.8 8.3 12.9L4.9 15.8C4.8 15.9 4.5 15.9 4.4 15.8L1.1 13C1 12.9 1 12.7 1 12.6C1.1 12.5 1.2 12.4 1.3 12.4H3.3C3.3 12.3 3.3 12.2 3.3 12.1C3.4 11.2 3.5 10.5 3.8 9.49999C5.3 4.89999 10 2.19999 14.6 3.19999C19.3 4.19999 22.4 8.49999 21.9 13.3C21.5 18 17.5 21.6 12.7 21.6Z" fill="#EE0033"/>
<path d="M12.4 7.79999C12 7.79999 11.6 8.09999 11.6 8.59999V12.3C11.6 12.6 11.8 13 12.1 13.2L15.2 15.1C15.6 15.3 16 15.2 16.2 14.8C16.4 14.4 16.3 14 15.9 13.8L13.2 12V8.59999C13.2 8.19999 12.9 7.79999 12.4 7.79999Z" fill="#EE0033"/>
</svg>
