<svg width="24" height="24" viewBox="0 0 24 24" fill="none" xmlns="http://www.w3.org/2000/svg">
<path d="M21 3H3C1.9 3 1 3.9 1 5V19C1 20.1 1.9 21 3 21H21C22.1 21 23 20.1 23 19V5C23 3.9 22.1 3 21 3ZM17.8 12.4L16.5 13.7V16C16.5 16.3 16.3 16.6 15.9 16.6H13.6L12.3 17.9C12.1 18.1 11.7 18.1 11.5 17.9L10.2 16.6H8.1C7.8 16.6 7.5 16.4 7.5 16V13.7L6.2 12.4C6 12.2 6 11.8 6.2 11.6L7.5 10.3V8.1C7.5 7.8 7.7 7.5 8.1 7.5H10.4L11.7 6.2C11.9 6 12.3 6 12.5 6.2L13.8 7.5H16.1C16.4 7.5 16.7 7.7 16.7 8.1V10.4L18 11.7C18 11.8 18 12.2 17.8 12.4Z" fill="#EE0033"/>
<path d="M12 8.5V15.4C13.9 15.4 15.5 13.9 15.5 11.9C15.5 10.1 13.9 8.5 12 8.5Z" fill="#EE0033"/>
</svg>
