<svg width="24" height="24" viewBox="0 0 24 24" fill="none" xmlns="http://www.w3.org/2000/svg">
<path d="M16.7697 15.3628C15.8334 15.3628 14.9385 15.7658 14.3163 16.465L9.32059 13.4724C9.77098 12.5716 9.77098 11.5168 9.32059 10.616L14.3163 7.6174C15.5608 8.99818 17.6882 9.11077 19.069 7.8663C20.4498 6.62182 20.5624 4.49436 19.3179 3.11358C18.0734 1.7328 15.946 1.62021 14.5652 2.86469C13.4511 3.86619 13.137 5.48401 13.7889 6.82923L8.79317 9.82783C7.5724 8.46483 5.47457 8.34631 4.10564 9.57301C2.73672 10.7997 2.62412 12.8916 3.85082 14.2605C5.07752 15.6295 7.16943 15.7421 8.53835 14.5154C8.62724 14.4324 8.71613 14.3494 8.79317 14.2605L13.7889 17.2591C13.5696 17.7036 13.457 18.1895 13.4511 18.6814C13.4511 20.5126 14.9385 22 16.7697 22C18.6008 22 20.0883 20.5126 20.0883 18.6814C20.0883 16.8502 18.6008 15.3628 16.7697 15.3628Z" fill="#EE0033"/>
</svg>
