<svg width="24" height="24" viewBox="0 0 24 24" fill="none" xmlns="http://www.w3.org/2000/svg">
<path d="M21.7232 12.2949L15.0562 18.9619C14.4609 19.5572 13.4291 19.1405 13.4291 18.2873V14.4776H8.03205C7.50424 14.4776 7.07962 14.0529 7.07962 13.5251V9.71541C7.07962 9.18761 7.50424 8.76299 8.03205 8.76299H13.4291V4.95327C13.4291 4.10402 14.457 3.68337 15.0562 4.27864L21.7232 10.9456C22.0923 11.3187 22.0923 11.9219 21.7232 12.2949ZM9.61943 18.7635V17.1761C9.61943 16.9142 9.40513 16.6999 9.14321 16.6999H5.80971C5.1073 16.6999 4.53981 16.1324 4.53981 15.43V7.81056C4.53981 7.10814 5.1073 6.54065 5.80971 6.54065H9.14321C9.40513 6.54065 9.61943 6.32636 9.61943 6.06444V4.47706C9.61943 4.21514 9.40513 4.00084 9.14321 4.00084H5.80971C3.70643 4.00084 2 5.70728 2 7.81056V15.43C2 17.5333 3.70643 19.2397 5.80971 19.2397H9.14321C9.40513 19.2397 9.61943 19.0254 9.61943 18.7635Z" fill="#EE0033"/>
</svg>
