<svg width="24" height="24" viewBox="0 0 24 24" fill="none" xmlns="http://www.w3.org/2000/svg">
<path d="M22 11.3333C22 10.5139 21.5486 9.80556 20.8889 9.42014V4.11111C20.8889 3.80903 20.6458 3 19.7778 3C19.5312 3 19.2847 3.08333 19.0833 3.24306L16.1319 5.60417C14.6493 6.78819 12.7882 7.44444 10.8889 7.44444H4.22222C2.99653 7.44444 2 8.4375 2 9.66667V13C2 14.2292 2.99306 15.2222 4.22222 15.2222H5.39236C5.34375 15.5868 5.31597 15.9549 5.31597 16.3333C5.31597 17.7153 5.63889 19.0208 6.20486 20.184C6.38542 20.5556 6.77778 20.7778 7.19097 20.7778H9.77083C10.6771 20.7778 11.2188 19.7431 10.6701 19.0208C10.1007 18.2743 9.76389 17.3403 9.76389 16.3333C9.76389 15.9479 9.81944 15.5764 9.91667 15.2222H10.8889C12.7882 15.2222 14.6493 15.875 16.1319 17.0625L19.0833 19.4236C19.2812 19.5799 19.5243 19.6667 19.7778 19.6667C20.6424 19.6667 20.8889 18.875 20.8889 18.5556V13.2465C21.5486 12.8611 22 12.1528 22 11.3333ZM18.6667 16.2431L17.5208 15.3264C15.6458 13.8264 13.2917 13 10.8889 13V9.66667C13.2882 9.66667 15.6458 8.84028 17.5208 7.34028L18.6667 6.42361V16.2431Z" fill="#EE0033"/>
</svg>
