<svg width="24" height="24" viewBox="0 0 24 24" fill="none" xmlns="http://www.w3.org/2000/svg">
<path d="M5.62831 19.0295C7.56039 20.5534 9.97776 21.2655 12.4359 21.0342C14.8851 20.8029 17.121 19.66 18.7265 17.8141C18.8082 17.7188 18.849 17.5964 18.8354 17.4739C18.8218 17.3514 18.7628 17.2381 18.663 17.161L17.053 15.891C16.867 15.7414 16.5949 15.7641 16.4362 15.9455C14.1231 18.5216 10.1773 18.8572 7.45607 16.712C4.60331 14.4624 4.11348 10.3125 6.36304 7.45974C8.6126 4.60697 12.7625 4.11715 15.6153 6.36671C16.2593 6.87467 16.7945 7.48695 17.2117 8.18994L16.1595 8.25343C15.9962 8.2625 15.8511 8.35775 15.7785 8.49834C15.706 8.64348 15.715 8.81582 15.8012 8.95189L18.908 13.2832C18.9941 13.4193 19.1483 13.4964 19.3116 13.4873C19.4749 13.4782 19.62 13.383 19.6926 13.2424L21.9512 8.62534C22.0238 8.4802 22.0147 8.30786 21.9285 8.1718C21.8424 8.03573 21.6882 7.95863 21.5249 7.9677L20.4046 8.02666C19.7878 6.46648 18.7628 5.09226 17.443 4.04912C13.3203 0.788163 7.30641 1.49569 4.04545 5.62744C0.789034 9.75919 1.49656 15.7731 5.62831 19.0295Z" fill="#EE0033"/>
<path d="M10.8259 12.8206L14.2909 15.2924C14.495 15.442 14.7036 15.1744 14.7172 15.1563L15.7513 14.0678C15.8057 13.9181 15.7196 13.832 15.5835 13.7367L12.4631 11.6368L12.4359 7.62753C12.4359 7.50054 12.3361 7.40076 12.2092 7.40076H10.8485C10.7215 7.40076 10.6218 7.50054 10.6218 7.62753L10.6082 12.553C10.6127 12.68 10.6898 12.7344 10.8259 12.8206Z" fill="#EE0033"/>
</svg>
