<svg width="24" height="24" viewBox="0 0 24 24" fill="none" xmlns="http://www.w3.org/2000/svg">
<path d="M21 14.2V8.90999C21 8.01999 19.92 7.56999 19.29 8.19999L17 10.5V6.99999C17 6.44999 16.55 5.99999 16 5.99999H10.39L19.3 14.91C19.92 15.54 21 15.09 21 14.2ZM2.70998 2.55999C2.31998 2.94999 2.31998 3.57999 2.70998 3.96999L4.72998 5.99999H3.99998C3.44998 5.99999 2.99998 6.44999 2.99998 6.99999V17C2.99998 17.55 3.44998 18 3.99998 18H16C16.21 18 16.39 17.92 16.55 17.82L19.03 20.3C19.42 20.69 20.05 20.69 20.44 20.3C20.83 19.91 20.83 19.28 20.44 18.89L4.11998 2.55999C3.72998 2.16999 3.09998 2.16999 2.70998 2.55999Z" fill="#EE0033"/>
</svg>
