<svg width="24" height="24" viewBox="0 0 24 24" fill="none" xmlns="http://www.w3.org/2000/svg">
<path d="M15.72 6.41001C15.37 6.76001 15.28 7.29001 15.47 7.76001C15.77 8.51001 15.79 9.34001 15.52 10.1C15.36 10.56 15.46 11.08 15.81 11.42C16.41 12.02 17.47 11.89 17.83 11.11C18.47 9.72001 18.43 8.12001 17.71 6.70001C17.31 5.95001 16.3 5.82001 15.72 6.41001ZM19.18 2.89001C18.78 3.29001 18.72 3.91001 19.05 4.37001C20.98 7.05001 21 10.62 19.14 13.44C18.83 13.9 18.91 14.52 19.3 14.91C19.81 15.42 20.68 15.37 21.11 14.78C23.68 11.27 23.63 6.58001 20.94 3.01001C20.51 2.45001 19.68 2.39001 19.18 2.89001ZM9.43 5.04001L12.96 8.57001C12.76 6.71001 11.29 5.24001 9.43 5.04001ZM3.71 3.56001C3.32 3.95001 3.32 4.58001 3.71 4.97001L5.62 6.88001C5.06 7.77001 4.83 8.89001 5.15 10.08C5.51 11.41 6.59 12.48 7.92 12.85C9.11 13.18 10.23 12.94 11.12 12.38L15.52 16.78C13.74 15.6 10.78 15 9 15C6.33 15 1 16.34 1 19V20C1 20.55 1.45 21 2 21H16C16.55 21 17 20.55 17 20V19C17 18.63 16.89 18.3 16.71 17.98L19.02 20.29C19.41 20.68 20.04 20.68 20.43 20.29C20.82 19.9 20.82 19.27 20.43 18.88L5.12 3.56001C4.73 3.17001 4.1 3.17001 3.71 3.56001Z" fill="#EE0033"/>
</svg>
