<svg width="24" height="24" viewBox="0 0 24 24" fill="none" xmlns="http://www.w3.org/2000/svg">
<path d="M4.47 20.9998H19.53C21.07 20.9998 22.03 19.3298 21.26 17.9998L13.73 4.98981C12.96 3.65981 11.04 3.65981 10.27 4.98981L2.74 17.9998C1.97 19.3298 2.93 20.9998 4.47 20.9998ZM12 13.9998C11.45 13.9998 11 13.5498 11 12.9998V10.9998C11 10.4498 11.45 9.99981 12 9.99981C12.55 9.99981 13 10.4498 13 10.9998V12.9998C13 13.5498 12.55 13.9998 12 13.9998ZM13 17.9998H11V15.9998H13V17.9998Z" fill="#EE0033"/>
</svg>
