<svg width="24" height="24" viewBox="0 0 24 24" fill="none" xmlns="http://www.w3.org/2000/svg">
<path d="M2.05996 10.06C2.56996 10.57 3.37996 10.62 3.92996 10.16C8.59996 6.31999 15.38 6.31999 20.06 10.15C20.62 10.61 21.44 10.57 21.95 10.06C22.54 9.46999 22.5 8.48999 21.85 7.95999C16.14 3.28999 7.87996 3.28999 2.15996 7.95999C1.50996 8.47999 1.45996 9.45999 2.05996 10.06ZM9.81996 17.82L11.29 19.29C11.68 19.68 12.31 19.68 12.7 19.29L14.17 17.82C14.64 17.35 14.54 16.54 13.94 16.23C12.72 15.6 11.26 15.6 10.03 16.23C9.45996 16.54 9.34996 17.35 9.81996 17.82ZM6.08996 14.09C6.57996 14.58 7.34996 14.63 7.91996 14.22C10.36 12.49 13.64 12.49 16.08 14.22C16.65 14.62 17.42 14.58 17.91 14.09L17.92 14.08C18.52 13.48 18.48 12.46 17.79 11.97C14.35 9.47999 9.65996 9.47999 6.20996 11.97C5.51996 12.47 5.47996 13.48 6.08996 14.09Z" fill="#EE0033"/>
</svg>
