<svg width="24" height="24" viewBox="0 0 24 24" fill="none" xmlns="http://www.w3.org/2000/svg">
<path fill-rule="evenodd" clip-rule="evenodd" d="M4 7.75C3.92437 7.75 3.87006 7.77702 3.83048 7.81688C3.7902 7.85744 3.76 7.91699 3.76 8L3.75 19C3.75 19.0001 3.75 18.9999 3.75 19C3.75022 19.1433 3.85664 19.25 4 19.25H20C20.1435 19.25 20.25 19.1435 20.25 19V8C20.25 7.8565 20.1435 7.75 20 7.75H4ZM15.75 3.02656C15.9094 3.31414 16 3.64587 16 4V6H20C21.11 6 22 6.89 22 8V19C22 20.11 21.11 21 20 21H4C2.89 21 2 20.11 2 19L2.01 8C2.01 6.89 2.89 6 4 6H8V4C8 3.64587 8.09059 3.31414 8.25 3.02656C8.43085 2.70029 8.70029 2.43085 9.02656 2.25C9.31414 2.09059 9.64587 2 10 2H14C14.3541 2 14.6859 2.09059 14.9734 2.25C15.2997 2.43085 15.5691 2.70029 15.75 3.02656ZM14 6V4H10V6H14Z" fill="#EE0033"/>
</svg>
