<svg width="24" height="24" viewBox="0 0 24 24" fill="none" xmlns="http://www.w3.org/2000/svg">
<path opacity="0.3" d="M4 8V19H17.74L6.74 8H4ZM12.4 8L20 15.6V8H12.4Z" fill="#8F9294"/>
<path d="M9.99999 3.99997H14V5.99997H10.4L12.4 7.99997H20V15.6L22 17.6V7.99997C22 6.88997 21.11 5.99997 20 5.99997H16V3.99997C16 2.88997 15.11 1.99997 14 1.99997H9.99999C9.00999 1.99997 8.19999 2.69997 8.03999 3.63997L9.99999 5.59997V3.99997ZM3.39999 1.83997L1.98999 3.24997L4.73999 5.99997H3.99999C2.88999 5.99997 2.00999 6.88997 2.00999 7.99997L1.99999 19C1.99999 20.11 2.88999 21 3.99999 21H19.74L21.74 23L23.15 21.59L3.39999 1.83997ZM3.99999 19V7.99997H6.73999L17.74 19H3.99999Z" fill="#8F9294"/>
</svg>
