<svg width="24" height="24" viewBox="0 0 24 24" fill="none" xmlns="http://www.w3.org/2000/svg">
<path d="M15.776 15.8676C16.3262 15.3541 16.7938 14.7581 17.1605 14.098L22.3777 19.3152C23.2075 20.1679 23.2075 21.5249 22.3777 22.373C21.525 23.1982 20.1726 23.1982 19.3199 22.373L14.1027 17.1604C14.2173 17.2796 15.6476 15.996 15.776 15.8676Z" fill="#EE0033"/>
<path d="M1 9.06877C1 13.5249 4.61261 17.1375 9.06877 17.1375C13.502 17.0779 17.0779 13.502 17.1375 9.06877C17.1329 4.61261 13.5249 1.00458 9.06877 1C4.61261 1 1 4.61261 1 9.06877ZM4.51633 9.06877C4.51633 8.44069 5.02521 7.9318 5.65329 7.9318C9.95203 7.9318 8.86683 7.9318 12.4751 7.9318C13.1032 7.9318 13.612 8.44069 13.612 9.06877C13.612 9.69685 13.1032 10.2057 12.4751 10.2057C8.86683 10.2057 9.95203 10.2057 5.65329 10.2057C5.02521 10.2057 4.51633 9.69685 4.51633 9.06877Z" fill="#EE0033"/>
</svg>
